<?xml version="1.0" standalone="no"?>
<!DOCTYPE svg PUBLIC "-//W3C//DTD SVG 20010904//EN"
 "http://www.w3.org/TR/2001/REC-SVG-20010904/DTD/svg10.dtd">
<svg version="1.0" xmlns="http://www.w3.org/2000/svg"
 width="248.000000pt" height="248.000000pt" viewBox="0 0 248.000000 248.000000"
 preserveAspectRatio="xMidYMid meet">
<metadata>
Created by potrace 1.11, written by Peter Selinger 2001-2013
</metadata>
<g transform="translate(0.000000,248.000000) scale(0.100000,-0.100000)"
fill="#000000" stroke="none">
<path d="M1359 2183 c-6 -21 -19 -48 -27 -61 -11 -17 -16 -54 -17 -128 -1 -57
2 -104 6 -104 9 0 23 -50 20 -69 -2 -8 8 -23 21 -33 22 -17 22 -19 5 -32 -12
-9 -29 -11 -60 -6 -23 5 -44 8 -47 7 -2 -1 -11 12 -19 28 -8 17 -18 37 -23 45
-5 8 -25 48 -45 88 -20 41 -47 81 -62 90 -14 9 -38 29 -52 45 -20 23 -34 29
-71 29 -42 1 -48 -2 -102 -59 -31 -33 -91 -116 -132 -184 -112 -183 -110 -178
-129 -306 -3 -23 24 -52 67 -70 32 -14 162 -11 281 8 111 17 122 9 117 -78 -2
-32 -3 -77 -2 -100 1 -38 -2 -45 -28 -58 -16 -8 -34 -24 -40 -34 -17 -33 -12
-86 10 -106 25 -23 25 -36 -1 -88 l-22 -42 21 19 c12 10 24 27 27 37 4 11 10
17 15 14 5 -3 10 0 12 6 2 6 15 9 28 7 l25 -4 -29 -12 c-31 -14 -64 -51 -83
-94 -19 -45 0 -32 27 18 23 42 78 84 110 84 22 0 -10 -38 -54 -64 -25 -14 -48
-31 -51 -36 -11 -18 99 50 122 75 28 32 44 14 40 -44 -2 -22 0 -41 5 -41 4 0
8 9 8 19 0 11 4 22 9 26 5 3 7 17 5 32 -4 22 -2 24 9 15 8 -7 16 -10 19 -7 3
3 4 -6 4 -19 -1 -14 -5 -28 -9 -32 -4 -4 -7 -19 -7 -33 0 -25 1 -24 28 13 15
21 27 44 27 50 0 14 31 20 53 10 9 -4 24 -6 32 -5 11 1 10 -2 -3 -10 -15 -9
-16 -13 -5 -27 7 -9 8 -13 2 -9 -7 4 -11 -3 -11 -18 0 -19 3 -23 12 -15 6 5
14 7 17 4 3 -3 5 2 4 12 0 9 7 18 17 20 15 2 16 0 6 -12 -6 -8 -9 -18 -5 -21
4 -4 11 -2 15 5 4 7 15 10 24 6 10 -3 17 -1 17 5 0 6 -4 10 -9 8 -5 -1 -9 1
-10 6 -4 27 1 37 19 37 11 0 20 -5 20 -11 0 -6 7 -9 15 -5 8 3 15 4 15 3 0 -1
-4 -17 -9 -35 -5 -17 -8 -32 -7 -32 8 0 45 38 41 41 -2 3 7 6 20 7 17 1 26 -5
33 -26 8 -21 11 -23 11 -7 1 17 3 17 11 5 9 -13 10 -13 10 0 0 8 -4 21 -9 29
-6 10 -1 21 17 36 22 18 28 33 30 73 2 46 0 53 -24 68 -21 15 -23 19 -10 26 8
5 23 33 32 63 10 30 21 52 26 49 5 -3 21 -30 35 -60 14 -30 28 -52 31 -50 3 3
-15 44 -38 92 -42 83 -43 87 -25 100 17 12 20 12 29 -3 5 -10 12 -20 15 -23
14 -12 31 -52 26 -60 -4 -6 -2 -10 4 -10 5 0 13 -9 16 -21 4 -11 9 -18 12 -15
3 3 2 13 -2 23 -11 24 -13 42 -20 158 l-5 100 19 -45 c24 -54 27 -33 6 37 -22
75 -138 211 -202 238 -29 12 -33 18 -33 52 1 37 21 79 33 66 4 -3 10 3 14 13
12 34 47 63 68 58 34 -8 59 29 62 91 3 63 -12 85 -57 85 -16 0 -35 7 -42 16
-35 42 -50 54 -75 60 -16 4 -31 11 -34 17 -4 5 -28 11 -54 12 -27 2 -65 7 -86
10 -36 6 -37 5 -50 -32z m-354 -241 c1 -8 45 -87 81 -143 33 -54 34 -73 3 -75
-27 -3 -76 -22 -119 -48 -41 -24 -160 -65 -160 -55 0 18 42 144 66 197 13 29
24 56 24 61 0 4 20 21 45 37 25 15 45 32 45 38 0 10 15 -1 15 -12z"/>
<path d="M1833 1382 c1 -18 7 -38 14 -44 10 -8 11 -4 4 18 -18 56 -20 59 -18
26z"/>
<path d="M1785 1128 c4 -13 11 -27 16 -33 5 -5 4 5 -2 23 -12 36 -24 44 -14
10z"/>
<path d="M1492 964 c10 -10 20 -16 22 -13 3 3 -5 11 -17 18 -21 13 -21 12 -5
-5z"/>
<path d="M647 808 c-2 -7 0 -21 5 -31 6 -12 5 -19 -7 -23 -8 -3 -15 -11 -15
-16 0 -6 7 -8 15 -4 12 4 14 -3 9 -42 -2 -26 -7 -67 -9 -92 -4 -32 -12 -51
-30 -65 -23 -19 -36 -51 -17 -43 62 27 176 88 209 110 91 62 66 152 -56 199
-59 22 -97 24 -104 7z m144 -69 c36 -26 52 -55 45 -82 -6 -24 -78 -75 -143
-100 l-42 -17 8 24 c5 12 12 39 15 58 3 19 10 46 15 59 10 29 11 32 11 65 0
24 3 26 31 20 17 -3 44 -15 60 -27z"/>
<path d="M1178 803 c-8 -10 -36 -51 -63 -90 -26 -40 -51 -70 -56 -67 -11 6
-39 -19 -39 -35 0 -6 8 -7 18 -4 15 6 15 5 3 -10 -7 -9 -17 -14 -22 -11 -5 3
-9 -9 -9 -27 0 -26 3 -29 14 -20 8 6 19 25 26 42 13 32 61 61 118 74 35 7 37
3 33 -70 0 -16 3 -37 9 -45 8 -13 11 -13 26 2 14 14 15 24 7 67 -10 53 -6 61
36 61 10 0 36 16 58 35 23 19 44 35 48 35 14 0 -10 -158 -26 -175 -12 -12 -11
-35 2 -35 14 0 37 57 43 109 6 56 12 60 33 22 10 -17 21 -31 26 -31 4 0 7 -7
7 -15 0 -8 4 -15 10 -15 5 0 12 -16 16 -35 7 -40 14 -43 37 -17 12 14 14 26 7
56 -12 54 28 180 55 170 6 -3 18 2 25 11 12 14 11 18 -1 26 -8 5 -18 7 -24 6
-11 -3 -84 -145 -85 -164 0 -16 -20 -17 -20 -2 0 6 -9 24 -21 40 -20 29 -27
47 -28 81 -1 15 -5 15 -48 -4 -27 -11 -59 -30 -73 -42 -16 -14 -38 -22 -60
-21 -35 0 -35 0 -44 58 -9 61 -14 67 -38 40z m14 -114 c-2 -11 -19 -19 -44
-23 -22 -4 -42 -5 -44 -4 -1 2 11 25 27 52 l31 49 17 -29 c10 -16 16 -36 13
-45z"/>
<path d="M1758 788 c-13 -18 -40 -59 -61 -91 -20 -32 -41 -56 -46 -53 -4 3
-16 -3 -26 -14 -16 -18 -16 -20 -2 -20 11 0 14 -5 10 -16 -3 -8 -12 -13 -19
-10 -10 4 -14 -4 -14 -26 0 -30 1 -30 19 -14 11 10 24 30 30 45 7 15 26 33 44
40 48 21 97 39 98 37 2 -1 5 -58 8 -113 1 -13 4 -23 9 -23 19 1 34 20 33 41
-7 100 -8 94 24 97 33 4 68 29 59 43 -3 5 -11 6 -17 2 -6 -4 -29 -9 -49 -10
-29 -3 -38 0 -39 11 -1 9 -2 19 -3 24 -1 4 -5 24 -9 45 -5 20 -12 37 -17 37
-5 0 -19 -15 -32 -32z m17 -55 c5 -16 9 -34 11 -40 1 -7 -14 -17 -34 -23 -58
-16 -65 -14 -47 15 8 14 22 36 30 50 20 32 31 32 40 -2z"/>
<path d="M1015 791 c-3 -6 -18 -9 -33 -7 -33 3 -85 -21 -76 -35 3 -6 12 -8 20
-5 10 4 12 -5 9 -42 -2 -26 -4 -64 -5 -85 0 -30 -5 -39 -24 -47 -28 -10 -43
-29 -24 -31 28 -3 54 4 81 19 26 16 26 17 6 24 -21 8 -21 6 -3 120 4 28 14 43
35 55 16 10 29 23 29 30 0 15 -6 17 -15 4z"/>
<path d="M1236 385 c-3 -8 -1 -15 4 -15 5 0 9 -10 7 -22 -1 -16 4 -23 18 -25
11 -1 14 0 8 3 -15 7 -17 41 -3 46 6 2 2 8 -9 15 -16 10 -20 9 -25 -2z"/>
<path d="M1463 360 c0 -22 3 -37 8 -34 11 7 12 74 1 74 -4 0 -8 -18 -9 -40z"/>
<path d="M595 360 c-9 -29 2 -40 38 -39 30 2 31 2 5 6 -16 2 -28 9 -28 14 0 5
0 12 -1 17 0 4 10 10 23 14 22 6 22 6 -4 7 -18 1 -29 -5 -33 -19z"/>
<path d="M711 361 c-8 -14 -7 -22 4 -31 13 -11 15 -9 13 11 -2 15 3 24 15 27
12 2 17 -3 17 -17 0 -12 -4 -21 -10 -21 -5 0 -10 -4 -10 -10 0 -14 27 -1 34
16 15 40 -43 63 -63 25z"/>
<path d="M835 370 c-3 -5 7 -16 22 -24 l28 -15 -30 -1 c-21 0 -26 -3 -16 -9
17 -11 51 -2 51 14 0 7 -10 16 -22 20 l-23 7 25 8 25 8 -27 1 c-15 1 -29 -3
-33 -9z"/>
<path d="M950 348 c0 -23 3 -29 9 -19 5 8 7 21 4 29 -4 10 0 13 13 10 12 -2
19 -11 18 -26 -1 -12 3 -22 7 -22 5 0 9 11 9 25 0 16 6 25 15 25 10 0 15 -10
15 -27 0 -20 3 -24 9 -14 5 7 6 22 4 32 -4 15 -15 19 -54 19 -49 0 -49 0 -49
-32z"/>
<path d="M1115 360 c-3 -11 -4 -24 -1 -29 8 -12 55 -20 62 -10 3 5 -7 9 -21 9
-19 0 -25 5 -23 18 2 9 8 20 13 24 6 5 3 8 -7 8 -9 0 -19 -9 -23 -20z"/>
<path d="M1156 365 c-3 -9 0 -15 9 -15 16 0 20 16 6 24 -5 3 -11 -1 -15 -9z"/>
<path d="M1335 360 c-14 -43 34 -62 61 -25 10 14 11 22 3 32 -18 20 -57 16
-64 -7z m53 -7 c5 -18 -28 -29 -38 -12 -5 7 -6 17 -3 22 7 12 35 5 41 -10z"/>
<path d="M1547 374 c-12 -12 -8 -41 8 -54 17 -14 21 0 4 17 -13 13 -4 33 16
33 18 0 26 -25 12 -40 -9 -10 -9 -11 3 -8 8 3 15 16 15 29 0 18 -6 25 -25 27
-14 2 -29 0 -33 -4z"/>
<path d="M1667 368 c-7 -23 5 -48 24 -48 11 0 19 -4 19 -9 0 -6 -10 -8 -22 -6
-17 4 -19 2 -9 -8 19 -19 46 5 49 47 3 34 2 36 -27 36 -16 0 -31 -6 -34 -12z
m50 -19 c1 -14 -3 -19 -15 -17 -24 5 -28 38 -5 38 12 0 19 -8 20 -21z"/>
<path d="M1790 374 c0 -5 6 -19 14 -29 10 -14 11 -25 4 -39 -7 -13 -7 -16 1
-12 16 10 53 86 42 86 -5 0 -13 -10 -17 -22 l-6 -21 -19 24 c-10 13 -19 19
-19 13z"/>
</g>
</svg>
