<?xml version="1.0" standalone="no"?>
<!DOCTYPE svg PUBLIC "-//W3C//DTD SVG 20010904//EN"
 "http://www.w3.org/TR/2001/REC-SVG-20010904/DTD/svg10.dtd">
<svg version="1.0" xmlns="http://www.w3.org/2000/svg"
 width="2480.000000pt" height="2480.000000pt" viewBox="0 0 2480.000000 2480.000000"
 preserveAspectRatio="xMidYMid meet">
<metadata>
Created by potrace 1.11, written by Peter Selinger 2001-2013
</metadata>
<g transform="translate(0.000000,2480.000000) scale(0.100000,-0.100000)"
fill="#000000" stroke="none">
<path d="M13737 22177 c-21 -12 -37 -29 -37 -38 0 -10 -11 -48 -24 -86 -13
-37 -27 -84 -30 -103 -3 -19 -22 -84 -42 -145 -36 -107 -48 -166 -60 -290 -7
-70 -23 -91 -75 -105 -21 -6 -52 -23 -70 -37 -32 -27 -79 -113 -79 -146 0 -9
-4 -25 -10 -35 -5 -9 -25 -52 -44 -95 -19 -42 -42 -80 -50 -83 -9 -3 -16 -12
-16 -19 0 -7 -7 -18 -15 -25 -10 -8 -15 -31 -15 -71 0 -32 -5 -61 -10 -64 -17
-10 -6 -52 18 -72 47 -38 71 -229 39 -306 -9 -21 -23 -86 -32 -145 -9 -59 -20
-123 -25 -142 -6 -19 -10 -66 -10 -104 0 -59 4 -72 26 -99 16 -19 24 -38 20
-50 -7 -28 18 -82 46 -101 l24 -16 -14 -72 c-8 -40 -17 -107 -19 -148 -3 -41
-9 -80 -14 -86 -5 -6 -11 -35 -14 -63 -3 -29 -14 -73 -25 -97 -10 -25 -31 -93
-45 -152 -14 -59 -29 -114 -35 -124 -14 -25 7 -85 33 -94 36 -12 80 -5 104 18
12 11 21 24 19 27 -2 3 0 15 5 26 8 20 8 20 8 -1 1 -11 5 -24 10 -30 5 -5 12
-20 16 -34 6 -20 5 -23 -5 -13 -10 9 -16 7 -29 -8 -11 -14 -30 -20 -63 -22
-27 -1 -48 -3 -48 -6 0 -11 38 -30 62 -31 15 0 29 -4 33 -10 3 -5 12 -6 21 -3
8 3 32 -2 52 -11 l37 -17 2 -92 c2 -75 6 -94 20 -104 40 -27 40 -29 27 -89
-11 -55 -10 -60 8 -76 11 -10 42 -20 69 -24 27 -4 49 -10 49 -15 0 -17 -22
-20 -56 -9 -19 7 -37 10 -40 7 -10 -10 10 -39 32 -48 16 -5 24 -17 24 -31 0
-36 -20 -99 -30 -93 -14 9 -17 -16 -13 -100 5 -91 19 -155 34 -155 6 0 8 -8 5
-17 -18 -60 175 -151 298 -141 38 3 39 2 52 -42 11 -36 11 -47 0 -60 -7 -8
-17 -42 -23 -76 -19 -104 -39 -134 -108 -162 -33 -13 -100 -31 -150 -38 -49
-8 -112 -18 -140 -23 -89 -17 -104 -14 -138 25 -54 62 -109 74 -178 39 -15 -8
-34 -13 -41 -10 -8 3 -27 -8 -43 -25 -16 -16 -37 -30 -47 -30 -21 0 -42 35
-35 60 3 11 -3 26 -14 36 -18 16 -20 16 -37 1 -23 -21 -62 -22 -62 -3 0 8 -7
21 -15 30 -12 12 -21 13 -40 4 -19 -9 -27 -7 -41 6 -15 16 -18 16 -39 -4 -12
-11 -28 -33 -36 -48 -25 -51 -30 -54 -51 -27 -11 14 -17 32 -14 40 3 8 2 15
-2 15 -4 0 -16 15 -26 33 -10 17 -29 43 -41 57 -26 29 -127 205 -174 302 l-32
67 16 59 c22 88 11 144 -36 189 -13 12 -32 31 -43 42 -10 11 -31 23 -47 26
-30 7 -49 30 -49 60 0 15 -42 78 -66 100 -7 6 -15 24 -19 40 -10 45 -53 126
-83 158 -36 38 -74 34 -83 -8 -4 -19 -6 -4 -6 38 0 37 4 67 8 67 4 0 17 -12
28 -26 l21 -27 0 40 c0 38 -18 72 -60 113 -21 20 -70 94 -70 105 0 11 -52 89
-63 93 -4 2 -5 8 -2 13 6 8 -23 55 -52 87 -7 7 -13 22 -13 31 0 10 -9 30 -20
44 -11 14 -20 32 -20 40 0 8 -9 25 -19 38 -26 33 -51 96 -51 128 0 15 -7 37
-16 49 -10 15 -16 45 -17 84 0 54 -3 62 -29 81 -35 26 -68 80 -68 111 0 13 -7
29 -15 36 -9 7 -14 19 -11 27 10 26 -57 115 -79 106 -8 -2 -31 14 -52 38 -101
113 -187 168 -300 193 -74 16 -80 20 -123 69 -67 77 -118 125 -180 171 -37 28
-54 47 -52 59 2 11 -20 39 -62 79 -52 47 -66 67 -66 89 0 16 -3 29 -7 29 -5 0
-18 15 -31 34 -13 19 -41 46 -62 61 -34 24 -46 26 -112 24 -40 -2 -79 0 -85 4
-14 9 -105 28 -158 32 -143 13 -174 16 -210 25 -22 5 -93 10 -158 10 -129 0
-149 -6 -222 -65 -22 -17 -57 -38 -78 -44 -21 -7 -66 -40 -104 -77 -37 -35
-69 -64 -73 -64 -3 0 -42 -41 -85 -92 -44 -51 -109 -119 -145 -152 -35 -34
-89 -88 -120 -121 -30 -33 -109 -114 -175 -179 -66 -66 -119 -124 -117 -129 4
-13 -28 -60 -36 -53 -9 10 -62 -46 -62 -66 0 -10 -4 -18 -10 -18 -5 0 -10 -6
-10 -12 0 -7 -18 -33 -39 -57 -22 -25 -38 -48 -35 -53 5 -8 2 -9 -33 -12 -27
-2 -45 -16 -39 -31 2 -7 -1 -18 -7 -25 -9 -10 -9 -11 3 -5 13 8 13 6 2 -8 -8
-9 -22 -19 -33 -22 -10 -4 -19 -14 -19 -24 0 -9 -12 -26 -27 -38 -16 -11 -48
-58 -72 -104 -24 -46 -66 -117 -93 -158 -26 -41 -48 -79 -48 -84 0 -12 -51
-90 -62 -95 -5 -2 -8 -12 -8 -23 0 -10 -13 -28 -30 -40 -16 -12 -27 -26 -23
-31 3 -6 -8 -24 -25 -41 -27 -29 -68 -99 -222 -377 -122 -220 -213 -371 -418
-689 -122 -189 -222 -345 -222 -348 0 -2 -11 -19 -25 -37 -14 -18 -22 -36 -18
-39 4 -4 -5 -20 -19 -35 -15 -15 -33 -43 -42 -62 -9 -19 -27 -53 -40 -75 -20
-34 -100 -179 -151 -274 -7 -15 -23 -47 -35 -73 -12 -27 -25 -50 -30 -53 -5
-3 -12 -20 -15 -37 -4 -18 -14 -38 -21 -46 -8 -7 -14 -22 -14 -32 0 -10 -4
-22 -10 -25 -5 -3 -10 -20 -10 -37 0 -22 -4 -29 -14 -25 -11 4 -13 1 -9 -10 4
-11 3 -14 -5 -9 -7 4 -15 0 -19 -11 -3 -10 -13 -27 -22 -37 -12 -14 -13 -20
-3 -23 19 -7 14 -23 -6 -23 -18 0 -42 -37 -42 -65 0 -8 -4 -15 -9 -15 -8 0
-28 -74 -46 -168 -4 -18 -13 -45 -21 -60 -8 -16 -14 -57 -14 -102 0 -48 -5
-83 -14 -95 -8 -12 -20 -89 -31 -190 -9 -93 -23 -199 -32 -235 -8 -36 -18 -85
-22 -110 -4 -25 -13 -56 -21 -70 -32 -57 -23 -342 13 -415 14 -30 163 -171
242 -230 90 -67 290 -156 515 -229 248 -81 330 -96 530 -96 268 0 1408 66
1461 84 8 3 185 32 394 65 209 33 493 83 630 111 221 46 265 52 380 53 148 1
228 -7 233 -22 2 -6 10 -11 17 -11 7 0 15 -4 17 -8 6 -14 67 -53 89 -57 12 -3
22 -6 23 -7 1 -2 7 -16 14 -31 8 -18 18 -27 26 -24 17 7 59 -30 51 -44 -4 -5
3 -23 15 -39 12 -17 31 -56 42 -88 27 -72 35 -258 18 -387 -20 -151 -21 -163
-20 -370 1 -149 -3 -210 -13 -240 -18 -51 -64 -348 -58 -370 7 -23 11 -96 11
-182 -1 -78 2 -93 17 -102 14 -8 15 -13 5 -19 -9 -6 -11 -30 -6 -93 3 -46 7
-109 8 -139 2 -30 6 -64 10 -75 4 -11 12 -32 18 -47 12 -33 4 -48 -23 -41 -30
8 -157 -16 -199 -37 -19 -9 -63 -33 -98 -53 -34 -20 -65 -36 -67 -37 -33 -5
-102 -50 -151 -98 -34 -33 -70 -65 -80 -70 -21 -11 -74 -109 -74 -135 0 -9
-15 -32 -34 -51 -25 -24 -33 -40 -29 -55 3 -12 1 -21 -5 -21 -5 0 -17 -12 -27
-26 -15 -24 -18 -59 -19 -279 -1 -179 -5 -257 -14 -267 -6 -8 -9 -18 -5 -21 3
-4 1 -18 -7 -31 -11 -21 -9 -29 14 -68 14 -23 31 -55 38 -70 7 -16 17 -28 23
-28 17 -1 55 -37 55 -53 0 -9 10 -24 23 -34 29 -24 102 -117 152 -194 21 -34
47 -66 57 -73 10 -6 18 -18 18 -26 0 -21 20 -40 43 -40 10 0 16 -4 13 -9 -3
-5 9 -14 27 -22 44 -17 43 -16 14 -40 -15 -11 -27 -27 -27 -36 0 -17 -41 -96
-52 -101 -5 -2 -8 -11 -8 -19 0 -19 -41 -93 -52 -93 -4 0 -8 -13 -8 -29 0 -17
-5 -33 -10 -36 -6 -4 -8 -11 -4 -16 3 -6 -2 -20 -13 -31 -18 -20 -18 -21 7
-14 14 3 19 3 13 0 -7 -3 -13 -10 -13 -15 0 -6 -13 -24 -30 -42 -16 -18 -30
-37 -30 -43 0 -6 -9 -19 -20 -29 -11 -10 -20 -24 -20 -32 0 -7 -7 -16 -15 -19
-8 -4 -15 -15 -15 -26 0 -10 -4 -17 -9 -14 -5 3 -8 -2 -7 -12 0 -11 -7 -18
-22 -20 -12 -2 -20 -8 -16 -13 3 -5 9 -7 13 -4 5 2 6 -7 3 -20 -2 -14 -8 -22
-13 -19 -11 6 -48 -35 -49 -53 0 -7 -3 -13 -8 -13 -4 0 -13 -9 -20 -21 -11
-17 -11 -20 0 -13 7 4 5 -2 -5 -14 -28 -31 -11 -45 19 -17 14 13 23 29 19 34
-7 12 31 58 40 49 9 -8 -6 -58 -16 -58 -5 0 -4 -10 3 -21 10 -17 10 -23 1 -26
-7 -2 -10 -10 -7 -18 4 -9 -4 -13 -29 -11 -32 1 -34 -1 -25 -18 9 -16 7 -18
-6 -13 -13 5 -15 1 -11 -21 3 -15 2 -21 -1 -14 -3 6 -10 12 -16 12 -6 0 -3
-11 6 -25 19 -30 21 -41 3 -26 -17 13 -27 5 -27 -23 0 -15 3 -17 12 -8 7 7 18
12 25 12 21 0 15 -28 -7 -35 -11 -3 -19 -11 -17 -17 1 -6 -4 -13 -11 -15 -8
-3 -10 1 -5 14 3 10 3 15 -2 11 -4 -4 -8 -15 -9 -25 -2 -17 -18 -57 -37 -95
-5 -10 -9 -20 -9 -22 0 -10 32 -36 43 -36 7 0 6 4 -3 10 -13 8 -13 11 2 22 9
7 19 25 20 39 2 15 9 33 16 41 6 8 9 18 5 21 -3 4 -2 7 4 7 12 0 37 57 34 77
-1 8 5 10 14 7 10 -4 15 0 15 15 0 12 5 21 10 21 6 0 15 10 21 23 6 12 25 33
44 47 18 14 33 27 32 30 0 3 6 19 13 35 15 33 17 40 19 56 0 5 6 7 11 4 6 -3
10 1 10 9 0 9 5 16 12 16 6 0 9 3 5 6 -6 6 30 60 62 94 8 8 20 29 28 47 7 18
18 33 23 33 5 0 12 11 16 25 3 14 10 25 14 25 5 0 12 9 15 20 4 11 19 35 35
52 16 17 34 44 41 60 7 16 28 46 48 66 20 20 45 54 56 74 11 21 26 40 34 43
24 10 32 -10 12 -31 -10 -12 -27 -36 -36 -54 -10 -19 -24 -40 -31 -48 -8 -7
-12 -18 -9 -23 4 -5 2 -9 -4 -9 -5 0 -12 -14 -16 -30 -4 -17 -11 -30 -16 -30
-5 0 -9 -6 -9 -12 0 -7 -11 -35 -25 -62 -14 -27 -23 -52 -20 -54 3 -3 5 0 5 6
0 7 7 12 15 12 8 0 15 7 15 15 0 8 5 15 10 15 6 0 10 15 11 33 0 17 3 26 6 20
5 -14 24 -18 22 -5 -3 20 2 32 16 32 8 0 15 7 15 15 0 8 9 30 20 50 11 19 16
35 13 35 -4 0 3 7 15 16 12 8 22 23 22 33 0 11 8 22 17 25 12 5 14 9 6 14 -8
5 -8 12 2 26 8 10 18 15 24 11 7 -3 8 0 5 10 -8 20 13 45 38 45 10 0 16 4 13
10 -3 5 0 10 8 10 10 0 13 8 9 25 -4 24 -2 25 39 23 31 -1 50 -8 64 -23 26
-28 75 -58 83 -51 3 3 0 6 -6 6 -7 0 -12 6 -12 13 0 8 7 14 15 14 8 0 12 -4
10 -8 -3 -4 3 -10 12 -13 10 -4 25 2 40 15 12 13 23 19 23 14 0 -5 5 -4 12 3
17 17 48 15 48 -3 0 -8 7 -15 15 -15 8 0 15 -9 15 -19 0 -31 17 -34 45 -9 34
30 75 42 75 22 0 -8 7 -14 15 -14 8 0 15 -3 15 -7 -1 -14 -30 -47 -36 -41 -3
4 -14 -1 -24 -9 -10 -9 -40 -23 -66 -33 -27 -9 -83 -33 -124 -52 -41 -20 -97
-46 -125 -58 -27 -12 -52 -26 -55 -30 -3 -4 -30 -20 -60 -36 -30 -15 -69 -38
-87 -51 -22 -17 -33 -21 -38 -12 -4 6 -2 15 5 19 8 5 9 10 2 14 -11 7 -14 3
-36 -40 -8 -14 -34 -47 -60 -74 -25 -26 -72 -84 -103 -127 -32 -44 -78 -106
-103 -139 -73 -97 -214 -360 -260 -484 -13 -36 -32 -78 -42 -95 -10 -16 -18
-39 -18 -50 0 -11 -7 -30 -15 -41 -8 -12 -11 -24 -8 -28 13 -12 64 -5 108 15
34 16 49 31 66 67 13 26 27 50 33 54 6 4 7 8 2 8 -5 0 -2 8 6 18 8 9 21 38 28
65 7 26 17 50 21 53 5 3 9 14 9 25 0 10 5 19 10 19 6 0 10 4 10 10 0 18 44
110 52 110 4 0 8 6 8 13 0 6 12 26 26 42 27 30 28 28 12 -25 -3 -8 -3 -12 -1
-7 3 4 9 5 14 1 5 -3 9 4 9 16 0 11 7 23 15 26 8 4 15 13 15 21 0 8 7 21 15
29 8 8 12 21 9 29 -4 8 -2 15 4 15 6 0 18 22 27 49 9 27 22 54 30 61 7 6 16
23 20 38 7 28 82 132 95 132 4 0 30 20 58 45 27 25 53 45 57 45 3 0 39 21 78
46 161 102 254 157 297 176 25 12 53 25 62 29 10 5 23 9 28 9 6 0 41 15 78 32
37 18 70 33 74 33 3 0 10 3 14 8 4 4 18 -5 31 -19 13 -15 23 -22 23 -16 0 7 6
12 14 12 8 0 16 5 18 10 5 15 50 21 65 9 13 -12 10 -78 -5 -88 -13 -9 -7 -144
7 -149 24 -8 -91 -135 -152 -167 -20 -11 -37 -23 -37 -27 0 -5 -6 -8 -13 -8
-7 0 -32 -14 -55 -31 -23 -17 -46 -28 -52 -24 -5 3 -10 2 -10 -4 0 -5 -15 -12
-32 -16 -28 -6 -100 -46 -118 -65 -3 -3 -12 -5 -20 -5 -8 1 -23 -5 -32 -13
-10 -8 -18 -11 -18 -6 0 5 -5 2 -10 -6 -5 -8 -13 -15 -19 -15 -5 0 -28 -16
-52 -35 -53 -43 -126 -90 -139 -90 -6 0 -10 -4 -10 -9 0 -6 -13 -18 -30 -28
-16 -9 -30 -23 -30 -30 0 -7 -7 -13 -15 -13 -7 0 -18 -6 -22 -13 -4 -6 -21
-19 -36 -27 -16 -8 -56 -41 -90 -73 -34 -32 -69 -61 -78 -65 -27 -12 -90 -64
-149 -122 -89 -90 -90 -97 -5 -38 44 30 97 61 118 68 21 6 41 18 44 26 3 8 14
14 24 14 10 0 19 5 19 11 0 5 4 8 8 5 5 -3 20 6 34 19 14 13 28 21 31 18 3 -3
21 7 40 21 19 14 37 26 42 26 4 0 22 12 40 27 63 55 77 64 111 80 19 9 34 21
34 25 0 5 4 7 9 4 5 -3 21 7 37 22 16 15 33 28 37 28 11 1 99 53 187 110 36
23 81 50 100 59 37 19 109 65 177 115 49 35 53 36 53 11 0 -10 -20 -37 -45
-60 -25 -23 -45 -46 -45 -51 0 -5 -9 -12 -21 -15 -11 -4 -29 -21 -40 -38 -10
-18 -19 -26 -19 -19 0 6 -5 12 -10 12 -7 0 -7 -6 0 -20 7 -14 7 -20 0 -20 -5
0 -10 6 -10 13 -1 7 -6 5 -14 -5 -7 -10 -17 -18 -23 -18 -12 0 -113 -108 -113
-121 0 -6 -4 -8 -8 -5 -5 3 -28 -15 -51 -40 -24 -24 -49 -44 -55 -44 -7 0 -23
-13 -36 -30 -14 -16 -29 -29 -33 -30 -12 0 -37 -27 -37 -39 0 -6 -7 -11 -15
-11 -8 0 -15 -5 -15 -10 0 -7 6 -7 20 0 11 6 20 14 20 18 0 4 18 18 40 32 37
23 44 32 41 53 0 4 9 7 21 7 26 1 58 22 58 38 0 5 12 15 28 20 15 5 50 32 77
58 49 48 70 66 129 112 16 12 25 22 21 22 -4 0 7 12 25 27 37 32 141 134 184
181 24 26 27 34 16 47 -8 10 -9 15 -1 15 6 0 11 -5 11 -10 0 -7 6 -7 20 0 11
6 20 18 20 26 0 8 5 12 10 9 6 -3 10 0 10 8 0 8 11 26 25 41 14 15 25 31 25
36 0 6 8 19 18 30 9 11 17 24 17 28 0 4 4 13 8 20 5 6 6 12 2 12 -3 0 4 10 15
23 38 41 80 100 80 112 0 16 33 45 52 45 31 0 36 -22 25 -112 -9 -72 -8 -92 4
-114 12 -22 15 -24 18 -9 2 14 5 15 12 4 7 -11 9 -9 9 7 0 11 3 24 7 28 8 7 9
11 12 37 0 5 6 7 11 4 6 -3 10 2 10 12 0 10 12 31 26 48 25 29 26 30 40 10 8
-11 14 -38 13 -60 0 -22 4 -94 10 -160 6 -66 11 -151 11 -188 0 -60 -3 -71
-25 -91 -31 -29 -31 -37 -1 -89 19 -34 25 -61 29 -139 3 -67 9 -105 21 -123 9
-14 12 -25 6 -25 -5 0 -12 -12 -16 -27 -7 -34 -43 -132 -55 -153 -5 -8 -15
-26 -21 -40 -7 -14 -23 -40 -35 -59 -13 -19 -23 -39 -22 -45 0 -7 3 -6 6 2 2
6 12 12 20 12 9 0 14 3 11 6 -3 3 16 28 43 55 27 27 52 61 55 74 3 14 10 25
15 25 5 0 9 9 9 21 0 11 5 17 10 14 6 -3 11 -1 11 4 1 6 2 19 4 29 1 9 7 30
13 45 7 16 12 30 12 31 0 2 8 21 17 42 9 22 16 45 14 52 -1 8 3 20 9 27 6 7
12 24 14 37 1 13 10 36 21 51 10 17 19 49 20 80 1 29 5 60 10 70 4 11 3 17 -5
17 -6 0 -8 5 -4 12 4 7 8 37 9 67 1 31 5 66 9 79 5 14 3 29 -4 37 -6 7 -7 16
-2 19 7 4 9 81 2 81 -1 0 -3 28 -4 62 -1 35 2 63 6 63 4 0 7 3 7 8 -1 4 -1 18
0 32 1 21 3 22 15 10 11 -11 15 -52 18 -167 2 -97 7 -149 13 -146 6 3 4 0 -2
-8 -7 -7 -13 -26 -13 -42 0 -24 3 -27 20 -22 11 4 20 2 20 -4 0 -6 -7 -11 -16
-11 -8 0 -12 -4 -9 -10 3 -5 2 -10 -3 -10 -10 0 -11 -229 0 -245 3 -5 4 -27 2
-48 -2 -21 1 -35 6 -32 5 3 6 -11 3 -31 -5 -33 -4 -37 11 -31 10 4 20 7 22 7
8 0 -7 392 -17 449 -6 35 -5 58 1 66 6 7 8 67 5 148 l-4 136 23 -9 c12 -4 29
-8 37 -7 25 2 89 -15 89 -24 0 -5 -4 -9 -10 -9 -5 0 -21 -11 -35 -25 -37 -38
-32 -75 10 -65 6 1 21 4 35 6 14 2 54 12 90 23 86 27 90 26 52 -8 -39 -37 -44
-76 -8 -69 19 4 23 1 19 -11 -4 -9 -13 -24 -21 -33 -19 -22 -8 -64 18 -71 22
-6 27 -36 9 -54 -7 -7 -13 -36 -14 -65 -1 -29 -5 -63 -9 -75 -6 -19 -4 -22 10
-16 19 7 16 0 -20 -49 -10 -15 -20 -35 -21 -45 -1 -10 -10 -37 -20 -61 -12
-30 -21 -40 -28 -33 -8 8 -16 6 -29 -6 -21 -19 -23 -43 -5 -62 10 -11 9 -13
-6 -8 -10 4 -15 3 -12 -2 8 -14 -14 -104 -28 -113 -9 -6 -9 -8 1 -8 17 0 15
-15 -4 -34 -9 -10 -21 -55 -30 -114 -8 -53 -16 -103 -19 -110 -3 -8 4 -7 20 4
14 9 22 21 18 27 -3 6 -1 7 5 3 9 -5 9 -13 2 -27 -8 -14 -7 -19 2 -19 22 0
129 113 135 142 3 15 12 29 20 32 8 3 11 10 8 16 -3 5 -2 10 3 10 4 0 16 17
27 38 10 20 20 32 22 25 2 -7 -1 -21 -6 -32 -10 -19 -8 -18 31 4 23 13 46 21
51 18 6 -3 7 -1 3 5 -9 14 14 62 30 62 8 0 11 6 8 15 -4 8 -1 15 6 15 7 0 10
7 6 15 -3 8 -1 15 4 15 6 0 10 5 10 11 0 15 26 39 34 32 3 -4 6 -1 6 6 0 7 14
26 30 41 24 23 28 32 22 51 l-9 22 -16 -23 c-23 -33 -42 -14 -23 22 8 15 12
29 8 32 -5 6 36 46 48 46 3 0 15 8 26 18 57 50 103 81 109 72 3 -6 -1 -10 -10
-10 -14 0 -14 -3 0 -30 9 -17 11 -30 5 -30 -11 0 -9 -28 4 -49 6 -9 5 -12 -1
-8 -6 4 -18 -2 -27 -12 -14 -15 -15 -24 -6 -40 6 -12 8 -21 5 -21 -3 0 0 -10
6 -22 11 -21 11 -22 -4 -9 -12 10 -17 10 -17 2 0 -7 -7 -20 -16 -28 -10 -10
-12 -18 -5 -22 11 -7 3 -51 -9 -51 -5 0 -6 -9 -3 -20 3 -11 2 -28 -3 -37 -4
-10 -8 -20 -8 -23 -1 -3 -21 -37 -44 -77 -23 -39 -42 -76 -42 -83 0 -6 -7 -21
-15 -33 -22 -34 -46 -107 -34 -107 21 0 59 33 59 51 0 11 5 19 10 19 6 0 10 7
10 15 0 8 4 15 9 15 5 0 8 6 8 13 -1 6 9 35 22 62 12 28 27 61 33 75 6 14 11
28 10 32 -1 5 2 8 7 8 6 0 10 8 10 18 1 39 14 84 27 89 7 2 10 11 7 19 -3 8
-2 22 2 32 13 29 17 45 18 82 1 19 8 41 15 49 8 8 12 25 9 38 -2 13 -1 26 4
29 15 9 -2 33 -19 27 -12 -4 -10 0 6 14 17 16 22 31 22 72 0 29 5 61 10 72 7
13 7 19 0 19 -5 0 -10 -5 -10 -11 0 -6 -9 -8 -22 -3 -22 6 -23 6 -5 -13 16
-19 16 -21 1 -27 -9 -4 -14 -12 -10 -22 3 -8 2 -13 -3 -10 -5 3 -11 -2 -13
-12 -4 -13 -14 -18 -36 -16 -21 1 -29 -2 -26 -11 6 -15 -37 -28 -50 -15 -5 5
13 24 43 45 44 32 49 39 40 56 -5 11 -14 17 -19 14 -15 -9 -22 14 -8 28 35 34
76 57 81 45 3 -8 6 -6 6 5 1 10 6 15 12 12 7 -5 9 5 7 26 -2 24 -9 35 -22 37
-11 3 -16 0 -12 -7 4 -7 -1 -11 -13 -11 -24 0 -24 0 -11 35 8 20 15 25 30 20
11 -3 20 -2 20 3 0 13 28 12 100 -5 36 -9 97 -16 136 -17 45 -1 78 -7 88 -16
10 -7 36 -15 58 -16 22 -1 44 -7 48 -14 10 -15 21 -15 31 2 12 18 28 -7 22
-33 -7 -24 4 -24 45 1 38 24 78 26 86 5 3 -8 -1 -21 -9 -29 -8 -7 -11 -16 -8
-20 4 -3 0 -6 -7 -6 -7 0 -1 -10 13 -23 23 -20 27 -30 27 -79 0 -31 -4 -59 -9
-62 -4 -3 -9 -41 -9 -83 0 -129 -29 -310 -54 -341 -6 -7 -8 -15 -5 -19 3 -3 0
-18 -8 -34 -8 -15 -15 -36 -15 -46 -1 -10 -18 -54 -39 -98 -28 -59 -35 -81
-25 -83 8 -2 20 2 27 10 33 35 105 223 102 266 -1 12 4 27 12 33 7 6 13 19 13
28 0 14 2 14 10 1 5 -8 7 -23 4 -32 -4 -14 0 -18 20 -18 14 0 26 5 26 10 0 6
9 10 20 10 42 0 13 -59 -84 -167 -30 -33 -37 -49 -33 -69 4 -20 -2 -33 -22
-50 l-26 -23 43 -1 c25 0 61 10 90 24 26 13 89 44 140 70 50 25 97 46 104 46
6 0 30 8 52 18 102 46 118 52 141 52 14 0 25 3 25 8 0 10 60 36 67 29 10 -11
-18 -75 -44 -102 -20 -19 -27 -37 -29 -71 -1 -24 -7 -51 -14 -59 -30 -36 13
-9 81 50 41 36 80 63 86 60 7 -2 12 1 10 7 -1 7 5 12 13 13 9 0 14 8 12 20 -3
16 -1 17 11 7 11 -10 17 -9 27 3 8 9 9 15 4 13 -5 -1 -19 3 -32 10 -12 7 -27
10 -32 7 -14 -8 -13 -4 11 59 16 40 27 56 40 56 11 0 19 6 19 13 0 8 4 7 10
-3 6 -10 10 -11 10 -2 0 6 7 12 15 12 8 0 15 4 15 10 0 10 71 33 78 25 3 -3
10 2 17 11 6 9 32 18 58 21 26 3 50 10 53 14 3 5 13 9 22 9 10 0 24 9 32 20 9
12 21 18 31 15 38 -12 189 89 189 126 0 18 -32 22 -42 5 -5 -9 -13 -14 -18
-11 -11 7 -62 -20 -53 -28 3 -4 -5 -7 -19 -7 -14 0 -31 -7 -38 -15 -7 -9 -15
-13 -18 -10 -3 2 -11 -3 -19 -13 -13 -16 -14 -16 -9 0 3 12 1 15 -10 11 -7 -3
-14 -9 -14 -15 0 -5 -9 -6 -20 -3 -14 5 -20 2 -20 -9 0 -9 -4 -16 -10 -16 -5
0 -10 -7 -10 -15 0 -8 -5 -15 -11 -15 -6 0 -9 8 -7 18 4 12 -1 18 -13 18 -11
0 -19 -6 -19 -13 0 -7 -4 -13 -10 -13 -5 0 -10 -6 -10 -14 0 -22 -52 -39 -75
-25 -22 13 -55 7 -66 -12 -8 -16 -13 -18 -25 -8 -12 10 -11 16 7 45 11 19 18
38 15 42 -3 5 3 17 13 26 14 13 28 16 56 10 30 -5 36 -4 30 6 -5 9 -4 11 3 6
14 -8 59 18 89 53 19 21 23 23 23 9 0 -18 25 -25 34 -9 3 4 21 11 41 14 19 3
42 13 51 21 21 21 14 51 -11 50 -33 -1 -136 -27 -141 -36 -3 -4 -14 -8 -24 -8
-10 0 -25 -6 -32 -13 -7 -7 -20 -12 -28 -12 -8 1 -26 -7 -38 -17 -19 -14 -27
-15 -37 -5 -12 10 -11 15 5 29 11 9 20 21 20 27 0 17 20 23 35 11 8 -7 15 -8
15 -3 0 6 21 21 48 34 26 13 49 27 52 30 3 3 14 9 25 14 18 7 16 9 -12 17 -30
8 -36 5 -63 -24 -30 -33 -30 -33 -36 -10 -4 14 -12 21 -20 18 -28 -11 -22 12
11 44 31 30 39 33 102 34 64 1 68 0 67 -21 0 -12 3 -20 8 -17 4 3 8 0 8 -6 0
-9 44 13 60 30 11 11 72 11 86 -1 12 -10 13 -9 8 5 -6 16 7 22 20 9 3 -4 14
-8 24 -9 9 -2 18 -7 20 -13 2 -5 9 -8 17 -5 7 3 16 1 20 -5 3 -7 0 -8 -9 -5
-9 3 -16 1 -16 -5 0 -6 -7 -11 -15 -11 -21 0 -19 -23 5 -38 15 -9 26 -9 47 -1
81 33 132 51 135 49 2 -1 15 3 29 8 14 6 31 7 38 3 17 -11 2 -41 -21 -41 -14
0 -18 -5 -15 -15 5 -11 1 -12 -17 -5 -17 6 -30 3 -54 -17 -29 -22 -46 -53 -21
-37 8 5 8 1 0 -14 -16 -30 -30 -36 -38 -15 -4 10 -13 24 -20 31 -11 11 -13 10
-13 -5 0 -10 -16 -42 -35 -70 -19 -29 -31 -54 -26 -58 5 -3 12 -1 16 5 4 6 10
8 14 6 4 -3 21 9 37 26 l29 32 -27 -17 c-23 -14 -26 -15 -22 -2 4 8 10 15 15
15 5 0 9 7 9 15 0 19 16 19 24 0 4 -12 11 -12 41 6 19 12 35 25 35 30 0 5 7 9
15 9 26 0 65 23 66 39 0 10 2 12 6 4 3 -9 10 -10 24 -3 21 12 59 -2 59 -21 0
-6 -5 -7 -12 -3 -8 5 -9 2 -5 -9 3 -10 2 -17 -3 -17 -6 0 -10 -7 -10 -15 0 -8
-4 -15 -9 -15 -5 0 -8 -8 -7 -17 0 -10 -5 -17 -11 -15 -7 1 -13 -5 -13 -13 0
-8 -4 -15 -9 -15 -5 0 -7 -9 -4 -20 6 -22 18 -26 28 -9 13 19 39 5 40 -23 2
-22 -3 -28 -27 -33 -15 -4 -26 -10 -24 -13 2 -4 -7 -8 -22 -9 -14 0 -29 -8
-34 -17 -6 -11 -16 -15 -29 -11 -11 4 -19 2 -19 -5 0 -19 -33 -47 -38 -32 -2
6 -8 12 -14 12 -5 0 -6 -9 -3 -21 5 -14 3 -19 -3 -15 -6 3 -13 -2 -15 -11 -4
-15 -5 -14 -6 3 -1 15 -7 20 -23 19 -13 -2 -22 -8 -20 -14 1 -6 -5 -11 -13
-11 -9 0 -12 -6 -9 -15 4 -8 12 -15 19 -15 7 0 15 -5 17 -11 3 -10 113 38 146
64 14 11 27 14 72 19 30 4 38 -22 15 -45 -8 -9 -15 -20 -14 -24 4 -23 -2 -35
-16 -29 -8 3 -18 -2 -23 -10 -4 -8 -20 -17 -34 -19 -34 -6 -102 -35 -109 -46
-3 -5 -18 -10 -33 -11 -17 -2 -35 -12 -44 -26 -8 -13 -21 -21 -28 -18 -8 3
-14 1 -14 -4 0 -6 5 -10 12 -10 6 0 8 -3 5 -7 -4 -3 -18 0 -31 7 -21 11 -27
10 -41 -3 -9 -9 -23 -13 -33 -10 -11 4 -9 -1 7 -15 25 -23 68 -31 55 -11 -3 6
1 10 12 9 36 -4 55 0 49 10 -3 6 1 10 10 10 9 0 13 4 10 10 -3 6 1 7 10 4 10
-4 29 3 46 15 16 12 29 17 29 11 0 -15 14 -12 37 9 12 11 24 17 27 14 3 -4 6
-2 6 4 0 15 51 26 63 14 8 -8 4 -24 -12 -53 -39 -71 -65 -108 -78 -108 -11 0
-33 -30 -33 -44 0 -29 184 35 235 82 71 65 88 91 90 139 3 77 11 91 55 98 30
5 40 11 40 26 0 10 -4 19 -9 19 -17 0 -19 39 -3 62 24 37 76 87 90 88 13 0 17
-57 4 -76 -4 -6 -25 -23 -46 -38 -21 -14 -33 -26 -27 -26 7 0 9 -5 5 -11 -11
-18 18 -29 40 -16 12 7 28 12 36 12 35 2 90 18 90 27 0 5 4 7 9 4 12 -8 22 19
11 30 -4 5 -11 19 -14 30 -5 17 -2 23 18 28 41 10 56 -2 56 -45 0 -37 21 -117
40 -151 8 -14 6 -16 -8 -11 -15 5 -15 4 2 -9 17 -13 17 -16 2 -30 -16 -16 -23
-74 -8 -65 4 3 12 0 17 -7 11 -12 15 -56 6 -56 -11 0 -10 -79 1 -86 8 -5 5
-10 -8 -15 -16 -6 -14 -8 9 -8 39 -1 61 23 53 59 -3 19 -1 30 5 30 7 0 9 10 5
23 -3 14 1 32 8 43 10 13 11 23 4 31 -7 9 -7 13 0 13 10 0 7 43 -4 61 -2 4 2
9 8 12 10 3 10 7 -1 20 -10 13 -17 15 -27 6 -8 -6 -14 -10 -15 -8 0 2 -3 13
-6 24 -2 11 -5 28 -6 38 -1 9 -4 17 -8 17 -4 0 -10 17 -13 38 -22 135 -21 137
32 126 26 -5 29 -9 20 -23 -7 -11 -8 -39 -4 -74 7 -52 9 -55 26 -44 26 15 34
38 18 49 -7 4 -9 8 -4 8 5 0 4 6 -2 12 -8 11 -10 45 -3 67 4 14 60 -56 71 -89
7 -22 16 -40 20 -40 4 0 11 -25 15 -57 6 -49 12 -62 49 -97 52 -49 71 -89 86
-178 12 -66 13 -68 42 -68 36 0 63 24 52 48 -4 9 -6 23 -5 30 1 6 -2 12 -8 12
-5 0 -7 9 -4 20 3 11 1 20 -4 20 -5 0 -10 15 -10 32 -1 43 -39 184 -67 249 -6
13 -2 16 18 12 25 -5 78 -53 58 -53 -17 0 -24 -35 -11 -62 11 -24 62 -62 71
-53 3 3 13 -3 22 -14 16 -17 25 -70 17 -96 -2 -5 -3 -23 -2 -40 1 -24 3 -27
12 -15 8 11 9 5 5 -25 -7 -52 5 -75 28 -52 24 23 36 178 22 277 -3 19 -5 43
-5 52 -1 9 -13 30 -27 47 -14 17 -23 31 -20 31 3 0 -8 14 -26 30 -17 17 -28
30 -24 30 3 0 -9 23 -28 51 -19 28 -32 57 -29 65 2 7 -7 28 -21 47 -26 34 -36
61 -14 39 17 -17 33 -15 19 2 -9 11 -6 12 15 8 18 -3 31 -16 42 -41 11 -26 17
-31 20 -18 2 9 8 15 13 12 5 -4 9 2 9 12 1 27 17 43 101 99 97 66 125 90 159
139 15 22 42 55 59 74 17 19 28 37 26 42 -3 4 4 10 15 14 11 3 20 13 20 21 0
8 5 14 10 14 6 0 10 7 10 15 0 8 5 15 11 15 5 0 8 4 4 9 -3 6 1 14 10 18 8 5
19 23 24 40 8 27 7 31 -6 26 -11 -5 -14 -1 -10 13 4 10 7 47 8 82 2 44 8 71
21 87 22 28 23 61 3 69 -15 5 -16 31 -2 53 4 6 1 13 -5 16 -9 3 -7 9 7 20 19
14 19 16 3 22 -22 9 -23 23 -1 47 9 10 11 18 5 18 -12 0 -9 29 7 58 11 21 4
63 -13 74 -7 5 -7 8 2 8 7 0 10 5 7 10 -3 6 0 10 7 10 9 0 9 3 -2 10 -8 5 -10
10 -5 10 6 0 11 27 12 60 0 33 -3 60 -8 60 -5 0 -4 11 1 26 6 14 9 57 9 97
l-1 71 -47 43 c-25 24 -52 43 -58 43 -7 0 -13 5 -13 11 0 5 -4 8 -9 4 -5 -3
-12 -1 -16 5 -4 6 -11 8 -16 5 -5 -4 -9 -2 -9 4 0 5 -10 13 -22 16 -36 11
-172 79 -180 90 -4 5 -8 6 -8 1 0 -4 -11 -1 -25 8 -13 9 -32 16 -42 16 -10 0
-28 7 -41 15 l-22 16 22 32 c11 18 39 47 62 65 69 57 206 193 206 206 0 7 16
27 35 46 19 19 35 42 35 52 0 10 9 47 20 81 40 123 59 185 105 332 26 83 53
164 61 182 8 17 14 40 14 52 0 11 8 35 18 53 20 35 61 139 69 176 4 17 10 21
24 17 28 -9 41 3 29 25 -9 17 -8 19 7 13 17 -6 17 -5 0 15 -18 20 -18 20 1 15
11 -2 24 -14 29 -26 6 -12 30 -44 54 -72 48 -55 89 -123 89 -149 0 -9 9 -36
20 -58 11 -23 20 -50 20 -60 0 -10 7 -21 15 -24 8 -4 15 -14 15 -23 0 -10 19
-56 43 -103 24 -46 42 -89 40 -95 -2 -6 4 -13 14 -15 24 -7 68 -95 64 -128 -1
-9 10 -27 24 -40 14 -13 25 -29 25 -37 0 -7 5 -13 10 -13 6 0 10 -17 10 -39 0
-23 6 -44 16 -52 8 -7 22 -25 30 -41 8 -16 25 -40 37 -54 12 -14 22 -31 22
-37 0 -10 26 -69 56 -129 5 -10 9 -27 9 -38 0 -12 7 -20 16 -20 10 0 14 -5 10
-15 -6 -17 12 -65 25 -65 4 0 11 -20 15 -45 3 -25 10 -45 15 -45 5 0 9 -8 9
-19 0 -10 7 -24 15 -31 8 -7 15 -16 15 -21 0 -4 5 -20 12 -36 6 -15 10 -32 9
-37 -1 -4 3 -14 9 -21 6 -7 17 -37 26 -66 16 -57 31 -95 48 -117 14 -19 46
-113 46 -134 0 -9 9 -22 20 -28 14 -8 20 -8 20 0 0 6 5 8 10 5 6 -4 1 -15 -12
-26 -16 -14 -19 -22 -10 -25 6 -3 12 -12 12 -20 0 -8 10 -28 22 -44 16 -22 24
-27 30 -18 6 10 10 10 18 -2 8 -12 10 -11 10 8 0 12 -4 22 -10 22 -5 0 -10 8
-10 18 0 10 -5 23 -11 29 -5 5 -12 25 -14 42 -2 18 -13 47 -24 64 -10 18 -22
48 -26 67 -3 19 -10 44 -15 55 -12 28 -24 78 -21 92 1 6 -3 14 -8 18 -6 3 -8
12 -4 20 3 8 0 15 -7 15 -6 0 -8 5 -5 10 3 6 1 10 -4 10 -6 0 -11 9 -11 20 0
10 -8 23 -17 29 -10 5 -15 13 -11 17 4 3 1 19 -8 35 -8 16 -11 29 -8 29 4 0 0
8 -9 18 -10 10 -14 22 -10 25 3 4 2 7 -4 7 -6 0 -10 12 -11 28 0 47 -1 50 -28
79 -14 15 -21 29 -15 31 6 2 11 11 11 19 0 9 -6 13 -14 10 -9 -4 -13 2 -12 16
1 12 -2 28 -7 35 -5 6 -6 12 -1 12 4 0 -2 9 -14 21 -12 11 -20 24 -17 30 4 5
-1 21 -9 36 -8 16 -17 36 -20 46 -3 11 -11 15 -18 11 -7 -5 -9 0 -6 14 4 12 0
26 -8 33 -8 7 -12 20 -9 29 3 9 -1 23 -10 30 -8 7 -15 23 -15 36 0 12 -6 29
-13 36 -18 17 -37 54 -42 77 -2 10 -13 38 -24 62 -12 23 -21 48 -21 54 0 6 -9
18 -20 28 -12 10 -18 22 -15 28 4 5 -5 22 -20 36 -15 16 -24 34 -22 45 3 9 -1
22 -9 29 -8 6 -12 15 -9 19 3 5 0 12 -5 15 -6 4 -9 21 -6 38 3 18 3 24 -2 15
-9 -22 -32 -9 -35 20 -1 12 -4 22 -8 22 -4 0 -12 14 -18 30 -7 20 -7 30 0 30
6 0 1 12 -10 26 -12 15 -21 32 -21 39 0 7 -6 15 -14 18 -15 6 -46 62 -46 84 0
7 -5 13 -11 13 -5 0 -8 4 -5 9 3 5 -7 26 -23 48 -16 22 -31 49 -35 60 -6 20
-76 101 -76 88 0 -3 -6 0 -14 7 -8 7 -12 17 -9 22 3 4 9 2 14 -5 4 -7 11 -11
14 -8 8 8 -5 39 -16 39 -25 0 -79 78 -93 135 -5 17 -10 39 -13 50 -4 11 -7 52
-9 90 -2 64 -8 93 -22 119 -3 5 0 6 5 3 14 -9 24 28 11 41 -5 5 -13 25 -17 45
-8 32 -7 35 16 35 30 0 40 9 25 24 -9 9 -13 7 -17 -5 -9 -21 -30 -12 -32 14
-1 14 3 19 12 15 7 -2 15 0 17 6 2 6 18 11 36 12 19 1 32 6 32 14 0 8 6 12 13
9 6 -2 20 9 29 25 12 19 26 28 43 28 14 0 28 6 31 14 3 8 20 17 39 20 40 8 61
31 57 62 -4 28 3 30 25 8 9 -9 22 -12 32 -8 9 3 33 8 53 11 35 4 38 2 36 -20
-2 -18 -14 -30 -51 -47 -27 -13 -51 -30 -54 -37 -10 -25 18 -43 67 -43 52 0
56 -6 67 -90 2 -19 6 -36 8 -38 2 -3 -5 -12 -17 -22 -25 -20 -17 -40 17 -40
13 0 30 -9 38 -21 15 -21 12 -59 -5 -59 -5 0 -6 -4 -3 -10 3 -5 1 -10 -5 -10
-6 0 -25 -13 -41 -29 -15 -16 -49 -39 -74 -51 l-45 -22 30 -35 c35 -40 41 -52
80 -178 38 -120 52 -157 69 -175 13 -13 14 -13 9 2 -4 9 -19 67 -34 130 -14
62 -37 136 -50 164 -13 28 -24 54 -24 57 0 4 18 10 40 13 30 5 40 11 40 25 0
11 -5 19 -11 19 -6 0 0 13 13 29 21 26 25 27 40 13 10 -8 39 -16 64 -18 56 -4
60 -7 39 -27 -8 -9 -15 -20 -15 -25 0 -6 -6 -12 -12 -15 -19 -7 40 -66 87 -88
22 -10 51 -19 65 -19 14 0 44 -9 67 -20 31 -14 41 -23 37 -35 -7 -18 -35 -12
-76 16 -35 26 -78 25 -78 0 0 -11 -5 -21 -12 -23 -7 -3 -8 -10 -4 -17 10 -16
105 -61 129 -61 9 0 17 -7 17 -15 0 -8 -7 -15 -15 -15 -8 0 -19 -9 -25 -20 -9
-16 -6 -26 17 -55 15 -19 31 -35 34 -35 4 0 7 -23 7 -51 l0 -50 -40 6 -40 7
18 -26 c27 -42 97 -79 134 -71 22 5 37 1 55 -13 24 -19 24 -21 7 -26 -11 -4
-25 -5 -33 -3 -8 2 -11 2 -7 0 4 -2 -2 -13 -13 -24 -26 -26 -24 -41 14 -90 40
-53 64 -69 76 -51 6 10 14 10 36 2 25 -10 27 -14 23 -54 -3 -26 0 -49 7 -60 7
-9 11 -26 8 -37 -3 -11 1 -27 10 -37 23 -26 30 -61 17 -77 -9 -11 -10 -23 -2
-42 21 -59 33 -109 30 -123 -4 -22 30 -13 57 14 22 22 22 22 3 46 -12 15 -15
26 -9 28 12 4 4 49 -12 69 -5 7 -11 30 -12 50 -7 84 -16 137 -25 148 -6 7 -6
15 1 22 8 8 8 13 0 17 -6 4 -11 17 -11 30 0 13 -9 31 -21 42 -19 17 -19 19 -4
30 15 11 14 13 -4 19 -11 3 -20 9 -19 13 2 4 -10 31 -26 59 -26 47 -35 55 -81
69 -66 21 -98 45 -90 66 4 9 14 14 25 11 10 -3 21 0 24 6 4 6 15 11 25 11 10
0 21 8 24 19 3 12 17 21 40 25 19 4 41 13 47 22 15 17 -2 34 -57 59 -25 10
-33 20 -33 39 0 19 5 26 20 26 11 0 20 7 20 15 0 10 11 15 35 15 25 0 35 5 35
15 0 18 -52 52 -95 61 -80 17 -115 66 -58 80 15 4 37 13 50 19 l23 12 -40 37
c-44 39 -51 42 -79 24 -15 -9 -24 -8 -45 5 -14 10 -26 24 -26 32 0 8 -4 15 -9
15 -5 0 -11 7 -15 15 -7 19 14 15 35 -7 14 -16 17 -15 45 7 16 14 46 29 67 35
20 6 37 17 37 25 0 14 -41 47 -72 58 -19 7 -25 37 -8 37 6 0 10 6 10 13 0 7
18 21 40 31 22 10 40 21 40 25 0 19 -51 52 -86 57 -67 9 -84 14 -84 25 0 15
22 35 47 43 11 4 28 15 38 26 10 11 30 20 44 20 25 0 25 1 -14 35 -22 18 -51
39 -65 46 -45 23 -52 31 -38 40 9 6 8 12 -5 27 -9 10 -17 22 -17 25 0 13 23 7
35 -9 14 -19 55 -11 55 12 0 8 5 14 10 14 21 0 8 30 -22 51 -49 34 -50 41 -17
70 l31 26 -44 37 c-57 49 -72 76 -49 93 10 8 11 12 4 13 -15 0 -17 46 -3 55 6
3 10 13 10 21 0 8 -3 13 -7 11 -23 -14 -5 118 21 151 7 10 5 16 -5 23 -12 8
-6 13 13 10 4 0 6 13 6 29 -1 16 6 40 15 54 13 20 14 28 4 38 -6 7 -13 29 -14
48 -1 19 -2 36 -3 38 -2 1 -3 10 -4 20 0 11 -7 26 -15 35 -11 14 -11 20 -1 32
9 11 10 15 1 15 -8 0 -7 5 3 15 9 9 13 26 10 43 -3 18 -1 23 5 13 5 -8 11 -9
15 -3 4 6 0 14 -7 19 -9 5 -20 56 -31 143 -10 74 -24 149 -32 167 -8 17 -16
45 -18 63 -2 17 -12 40 -22 52 -11 12 -13 18 -6 14 15 -9 16 6 0 22 -6 6 -9
15 -5 18 9 9 4 15 61 -80 29 -50 71 -149 112 -265 36 -103 71 -202 78 -221 7
-19 16 -52 20 -74 9 -50 26 -76 49 -76 29 0 31 25 7 113 -12 45 -26 100 -30
122 -8 36 -44 184 -56 228 -3 9 -1 17 4 17 5 0 9 -6 10 -12 0 -7 3 -24 7 -38
4 -14 8 -32 9 -40 2 -8 8 -28 15 -43 6 -16 11 -33 11 -38 0 -5 18 -75 40 -156
23 -80 38 -153 35 -161 -6 -16 13 -126 27 -158 5 -11 11 -47 12 -80 2 -38 15
-87 36 -138 22 -54 30 -88 26 -108 -3 -15 -2 -28 3 -28 8 0 18 -42 22 -90 1
-8 6 -21 12 -28 6 -8 10 -45 9 -84 -1 -50 2 -74 12 -82 18 -14 48 -137 42
-170 -3 -18 10 -54 40 -112 25 -48 46 -104 48 -126 2 -22 9 -45 15 -51 6 -6
11 -19 11 -29 0 -10 4 -26 9 -36 17 -30 24 -56 26 -93 2 -20 10 -51 20 -68 9
-18 14 -38 12 -44 -3 -7 4 -27 15 -45 11 -18 18 -38 15 -45 -3 -8 4 -19 14
-25 14 -9 17 -17 11 -30 -11 -20 -6 -38 19 -71 11 -13 19 -36 19 -52 0 -15 5
-31 10 -34 6 -3 10 -17 10 -30 0 -12 8 -26 17 -29 11 -5 13 -10 6 -17 -11 -11
23 -126 43 -144 6 -5 17 -30 24 -55 8 -25 21 -58 30 -75 9 -16 20 -48 24 -70
4 -22 13 -49 20 -60 8 -11 17 -39 21 -63 4 -23 10 -42 14 -42 9 0 6 57 -4 82
-4 9 -4 21 -1 26 3 6 -2 12 -13 15 -14 3 -17 11 -13 36 2 17 0 31 -5 31 -6 0
-18 28 -27 63 -28 103 -60 199 -68 204 -5 2 -8 15 -8 27 0 13 -7 37 -15 52 -8
16 -15 37 -15 47 0 9 -4 17 -9 17 -5 0 -9 10 -9 23 -1 39 -10 74 -25 98 -8 13
-15 39 -15 56 -1 39 -9 56 -24 47 -8 -5 -9 1 -5 16 3 13 3 29 -2 34 -4 6 -16
47 -27 91 -10 44 -22 82 -25 85 -4 3 -10 46 -13 95 -6 106 -3 90 -21 108 -8 8
-17 44 -21 79 -3 34 -10 65 -14 68 -15 9 -33 99 -27 130 4 16 3 31 -2 34 -4 3
-13 31 -20 63 -7 32 -20 80 -28 107 -8 27 -12 54 -9 61 3 8 -1 18 -8 24 -8 7
-16 25 -20 42 -3 17 -12 45 -20 62 -8 18 -22 66 -30 109 -9 42 -21 89 -28 105
-6 15 -15 75 -19 133 -7 98 -14 155 -18 155 -3 0 -7 14 -15 55 -8 34 -14 58
-26 105 -15 58 -29 125 -35 164 -3 19 -9 39 -12 45 -8 12 -13 31 -16 63 -1 13
-5 23 -10 23 -4 0 -5 11 -3 25 3 14 1 25 -3 25 -9 0 -31 91 -31 130 0 16 -7
30 -15 34 -8 3 -14 9 -13 13 1 4 -4 19 -12 33 -7 14 -13 27 -13 30 0 3 -6 19
-13 36 -7 16 -16 42 -19 57 -4 15 -11 27 -16 27 -5 0 -9 10 -9 23 0 12 -7 32
-15 43 -8 12 -11 24 -8 28 3 3 0 6 -7 6 -7 0 -11 3 -7 6 3 3 2 11 -3 18 -5 6
-28 34 -49 61 -22 28 -48 59 -58 70 -10 10 -25 31 -35 45 -9 14 -28 38 -42 54
-14 16 -26 33 -26 37 0 4 -8 10 -17 13 -10 3 -26 20 -36 37 -10 18 -20 29 -24
26 -7 -8 -40 29 -48 54 -4 11 -9 19 -13 19 -4 0 -27 18 -52 40 -25 22 -52 42
-61 45 -15 5 -40 52 -54 104 -5 17 -4 21 5 16 6 -4 1 9 -12 29 -13 20 -26 36
-31 36 -4 0 0 -11 9 -25 14 -22 14 -25 1 -25 -8 0 -18 11 -21 25 -3 13 -34 54
-67 90 -77 82 -70 85 11 4 33 -34 63 -59 66 -56 7 6 -36 67 -47 67 -4 0 -17
11 -30 25 -13 14 -50 39 -81 56 -50 28 -56 34 -47 51 18 33 -8 83 -72 142 -39
36 -69 56 -85 56 -22 0 -24 4 -24 52 0 48 -3 54 -42 90 -24 21 -54 41 -68 44
-52 12 -59 15 -54 28 3 7 -2 13 -10 13 -8 0 -13 -4 -10 -8 10 -17 -15 -17 -62
-1 -44 16 -50 22 -61 62 -7 24 -26 58 -42 74 -16 17 -40 54 -54 81 -25 50 -81
115 -99 115 -5 0 -31 23 -56 51 l-48 52 -133 2 -133 2 -54 61 c-36 40 -67 65
-92 73 -20 6 -44 17 -52 24 -34 29 -79 44 -122 41 -46 -2 -46 -2 -45 28 1 17
-4 110 -12 206 -16 219 -12 437 9 450 8 5 17 7 20 5 3 -2 13 33 24 78 10 45
25 106 33 135 16 52 16 52 49 46 27 -5 34 -2 44 16 10 18 9 24 -1 31 -26 16
72 92 107 83 27 -7 115 19 160 47 37 23 59 56 67 104 3 17 17 62 31 100 14 39
26 91 26 116 0 42 3 49 38 72 20 14 60 35 89 47 28 12 54 27 56 34 3 7 26 27
51 44 76 50 86 68 92 174 3 51 8 96 10 100 9 14 20 9 33 -16 9 -17 19 -22 34
-18 15 4 19 1 14 -10 -6 -17 21 -48 41 -48 6 0 32 -20 57 -44 l45 -44 26 34
c27 35 48 46 37 19 -6 -16 23 -55 40 -55 6 0 25 16 44 36 30 33 34 35 49 20
43 -44 99 -43 134 1 21 27 27 68 10 78 -15 9 7 46 23 39 7 -2 31 8 53 24 22
16 51 33 65 37 43 13 128 85 129 109 0 5 12 25 28 45 30 40 31 46 18 276 -6
125 -15 180 -37 237 -9 23 -7 32 15 61 14 19 26 41 26 49 0 9 7 32 16 53 8 20
13 44 11 53 -3 12 -6 9 -11 -9 -9 -30 -46 -52 -67 -38 -11 7 -9 13 13 31 56
48 92 287 53 361 -8 15 -10 25 -5 22 6 -4 10 0 10 8 0 15 -36 57 -50 57 -22 0
-48 46 -60 103 -7 34 -18 68 -23 75 -23 29 -73 45 -135 44 -55 0 -67 3 -95 27
-18 16 -47 32 -64 35 -34 8 -140 -11 -149 -26 -3 -5 -13 1 -23 13 -15 18 -30
22 -103 26 -96 5 -123 -4 -139 -44 l-9 -26 -35 36 c-19 20 -35 42 -35 50 0 23
-67 85 -100 91 -16 3 -43 9 -60 12 -23 4 -30 11 -30 28 0 12 -11 51 -25 86
-14 35 -25 73 -25 84 0 11 -9 39 -20 63 -11 24 -29 62 -40 86 -11 24 -20 48
-20 53 0 29 -114 94 -166 94 -16 0 -42 9 -59 20 -20 13 -47 20 -80 20 -46 0
-55 4 -90 41 -22 22 -67 55 -100 71 -58 30 -64 31 -189 30 -150 -1 -138 -8
-196 113 -21 45 -46 87 -56 95 -27 23 -118 16 -208 -14 l-79 -27 -23 22 c-19
18 -44 24 -151 34 -70 7 -191 16 -268 20 -77 4 -160 9 -185 11 -25 2 -100 8
-166 13 -102 8 -131 14 -184 39 -63 29 -64 29 -250 30 -172 0 -189 -2 -223
-21z m393 -61 c0 -2 -18 2 -40 7 -23 7 -35 14 -28 18 10 6 68 -15 68 -25z
m281 -123 c13 -16 12 -17 -3 -4 -10 7 -18 15 -18 17 0 8 8 3 21 -13z m1031
-20 c7 -16 23 -45 37 -66 17 -26 21 -41 14 -48 -7 -7 -14 0 -22 22 -6 18 -20
42 -30 54 -10 11 -22 30 -26 43 -9 32 13 28 27 -5z m-952 -55 c0 -15 -18 0
-41 35 l-22 32 31 -29 c18 -17 32 -34 32 -38z m100 31 c0 -6 -4 -7 -10 -4 -5
3 -10 11 -10 16 0 6 5 7 10 4 6 -3 10 -11 10 -16z m55 -49 c4 -6 23 -19 44
-30 21 -10 41 -26 44 -34 5 -11 -4 -9 -32 8 -46 30 -116 93 -84 77 12 -6 25
-16 28 -21z m1245 -216 c22 -24 20 -23 -17 6 -24 18 -43 35 -43 37 0 9 37 -18
60 -43z m199 -64 c29 -40 22 -38 -20 6 -18 19 -27 32 -18 29 9 -3 26 -19 38
-35z m52 -47 c13 -16 12 -17 -3 -4 -10 7 -18 15 -18 17 0 8 8 3 21 -13z
m-2498 -77 c29 -7 38 -26 11 -26 -24 0 -52 18 -65 43 -11 21 -11 21 7 6 10 -9
31 -19 47 -23z m2786 -88 c7 -24 21 -59 31 -78 10 -19 21 -50 25 -69 11 -52
-15 -35 -30 20 -14 52 -79 204 -97 229 -7 9 3 0 23 -21 19 -21 41 -57 48 -81z
m271 -332 c0 -18 -2 -18 -13 -6 -7 8 -19 29 -26 45 l-13 30 26 -24 c14 -14 26
-34 26 -45z m283 -87 c-7 -7 -12 -3 -15 16 -5 25 -4 25 10 11 12 -11 13 -19 5
-27z m287 -10 c0 -6 -4 -7 -10 -4 -5 3 -10 11 -10 16 0 6 5 7 10 4 6 -3 10
-11 10 -16z m-425 -39 c3 -5 -1 -10 -9 -10 -8 0 -18 5 -21 10 -3 6 1 10 9 10
8 0 18 -4 21 -10z m635 -60 c6 -11 9 -20 8 -20 -2 0 -11 9 -21 20 -9 11 -13
20 -7 20 5 0 14 -9 20 -20z m-4240 -92 c0 -12 -28 3 -34 18 -4 11 -2 12 14 1
11 -6 20 -15 20 -19z m-2810 -136 c0 -4 17 -18 37 -32 51 -35 120 -99 107
-100 -6 0 -31 18 -55 40 -119 107 -132 121 -111 110 12 -6 22 -14 22 -18z
m675 -612 c4 -6 -5 -5 -19 2 -14 6 -26 15 -26 20 0 10 36 -7 45 -22z m2130
-50 c12 -19 -12 -10 -31 11 -19 22 -19 22 3 10 12 -6 25 -16 28 -21z m65 -125
c0 -8 -2 -15 -4 -15 -2 0 -6 7 -10 15 -3 8 -1 15 4 15 6 0 10 -7 10 -15z
m-3120 -115 c0 -5 -7 -10 -15 -10 -14 0 -19 -14 -28 -70 -3 -17 -5 -13 -6 13
-1 25 5 43 19 57 22 22 30 25 30 10z m-1853 -75 c0 -8 -4 -12 -9 -9 -5 3 -6
10 -3 15 9 13 12 11 12 -6z m1723 -170 l5 -170 32 -46 c17 -25 40 -52 50 -60
17 -13 17 -13 3 6 -8 11 0 7 18 -9 18 -17 32 -32 32 -34 0 -3 -9 3 -20 13 -22
20 -26 15 -10 -13 17 -31 50 -111 50 -122 0 -22 51 -87 99 -125 27 -22 50 -44
51 -48 0 -5 11 -23 24 -40 13 -18 34 -52 46 -77 13 -25 43 -71 67 -104 24 -32
39 -55 32 -51 -6 5 -2 -10 11 -33 13 -23 26 -39 30 -37 4 2 7 -1 7 -8 2 -19
89 -219 112 -257 5 -8 21 -40 35 -70 14 -30 51 -87 83 -125 121 -147 137 -172
187 -295 26 -64 33 -78 74 -155 11 -22 28 -61 37 -87 9 -26 27 -64 41 -84 20
-29 22 -39 13 -51 -17 -19 5 -109 34 -140 11 -13 17 -26 13 -30 -4 -5 -92 -10
-194 -13 -139 -5 -198 -10 -229 -22 -23 -9 -82 -24 -130 -33 -221 -42 -289
-57 -332 -76 -211 -92 -284 -134 -432 -249 -97 -76 -152 -108 -264 -155 -44
-19 -115 -52 -158 -74 -44 -23 -87 -41 -98 -41 -10 0 -49 -12 -86 -26 -38 -14
-126 -45 -196 -69 -71 -25 -162 -60 -202 -79 -40 -19 -89 -38 -109 -42 -20 -3
-39 -10 -42 -15 -3 -5 -14 -9 -26 -9 -11 0 -34 -6 -51 -14 -100 -44 -411 -152
-503 -175 -39 -10 -76 -21 -82 -25 -23 -14 -32 4 -17 37 18 41 57 175 61 206
1 14 9 41 17 60 33 79 154 472 176 571 28 126 105 370 152 482 17 40 38 93 47
118 32 91 64 176 78 207 8 17 17 46 20 65 7 37 40 99 106 200 25 36 49 84 56
105 45 150 76 244 92 278 10 22 28 65 40 95 12 30 30 72 41 92 23 44 59 194
59 246 0 48 41 93 102 111 24 7 62 22 85 32 24 11 55 24 70 30 44 16 163 89
223 136 30 23 66 51 80 62 88 69 197 145 233 162 42 21 106 99 122 150 4 13
22 41 38 62 26 31 37 37 62 35 l30 -3 5 -170z m6970 75 c0 -5 -4 -10 -9 -10
-6 0 -13 5 -16 10 -3 6 1 10 9 10 9 0 16 -4 16 -10z m-6875 -179 c8 -26 29
-70 46 -97 l29 -49 -36 40 c-37 41 -61 88 -71 139 -10 46 13 23 32 -33z m-525
9 c-14 -11 -29 -20 -35 -20 -5 0 1 9 15 20 14 11 30 20 35 20 6 0 -1 -9 -15
-20z m701 -447 c13 -16 12 -17 -3 -4 -17 13 -22 21 -14 21 2 0 10 -8 17 -17z
m-1401 -103 c0 -5 -4 -10 -10 -10 -5 0 -10 5 -10 10 0 6 5 10 10 10 6 0 10 -4
10 -10z m1739 -303 c21 -38 23 -48 12 -61 -17 -20 -45 -20 -61 -1 -10 13 -9
15 8 15 29 0 36 33 17 71 -25 48 -3 27 24 -24z m187 -287 c13 0 29 -18 22 -25
-11 -11 -77 18 -102 44 l-28 29 48 -24 c26 -13 53 -24 60 -24z m1444 -69 c0
-12 -20 -25 -27 -18 -7 7 6 27 18 27 5 0 9 -4 9 -9z m-1415 -111 c10 -11 16
-20 13 -20 -3 0 -13 9 -23 20 -10 11 -16 20 -13 20 3 0 13 -9 23 -20z m60 -80
c10 -11 16 -20 13 -20 -3 0 -13 9 -23 20 -10 11 -16 20 -13 20 3 0 13 -9 23
-20z m2685 -42 c14 -2 34 -9 45 -16 18 -10 17 -11 -13 -12 -40 0 -98 29 -132
65 l-25 27 50 -31 c28 -16 61 -32 75 -33z m-2649 -5 c13 -16 12 -17 -3 -4 -17
13 -22 21 -14 21 2 0 10 -8 17 -17z m3073 -94 c19 -18 0 -16 -29 3 -27 18 -28
19 -5 13 14 -4 29 -11 34 -16z m1695 -166 c-1 -54 -4 -89 -6 -78 -3 11 -11 27
-18 35 -7 8 -12 31 -10 50 3 36 21 90 30 90 3 0 4 -44 4 -97z m-1688 31 c-5
-16 -10 -21 -10 -12 -1 18 10 51 15 45 2 -1 -1 -16 -5 -33z m-2926 -15 c-7
-10 -42 10 -49 27 -3 8 6 7 25 -3 16 -8 27 -19 24 -24z m2921 -126 c-4 -38 -8
-80 -9 -95 -4 -56 -13 -34 -11 25 5 118 7 137 17 137 6 0 7 -26 3 -67z m2069
-276 c11 -10 13 -15 5 -11 -24 11 -60 46 -60 58 0 6 8 1 18 -9 9 -11 26 -28
37 -38z m-4834 -44 c13 -16 12 -17 -3 -4 -17 13 -22 21 -14 21 2 0 10 -8 17
-17z m4920 -14 c13 -26 7 -24 -22 7 -17 19 -19 23 -6 18 10 -3 22 -15 28 -25z
m343 -146 c45 -84 51 -99 31 -85 -11 7 -95 165 -95 176 0 20 23 -13 64 -91z
m-194 58 c0 -5 -9 -7 -20 -4 -11 3 -20 7 -20 9 0 2 9 4 20 4 11 0 20 -4 20 -9z
m-2740 -16 c11 -13 10 -14 -4 -9 -9 3 -16 10 -16 15 0 13 6 11 20 -6z m3100
-228 c16 -29 30 -58 30 -66 0 -8 10 -25 22 -38 12 -13 17 -23 12 -23 -15 0
-46 46 -79 115 -16 33 -31 64 -33 69 -3 5 1 6 7 2 6 -4 25 -31 41 -59z
m-10000 44 c0 -6 -4 -13 -10 -16 -5 -3 -10 1 -10 9 0 9 5 16 10 16 6 0 10 -4
10 -9z m10300 -246 c7 -8 8 -15 2 -15 -5 0 -15 7 -22 15 -7 8 -8 15 -2 15 5 0
15 -7 22 -15z m-8940 -61 c0 -8 -5 -12 -10 -9 -6 4 -8 11 -5 16 9 14 15 11 15
-7z m-30 -150 c0 -8 -6 -17 -14 -20 -8 -3 -12 -12 -9 -20 3 -8 0 -14 -7 -14
-6 0 -8 -5 -5 -10 4 -6 1 -17 -5 -25 -6 -8 -9 -18 -6 -23 3 -6 -1 -15 -9 -22
-13 -11 -15 -6 -15 34 0 25 4 46 8 46 5 0 17 18 27 40 17 38 35 45 35 14z
m9265 -224 c20 -8 65 -46 65 -56 0 -3 -12 4 -26 15 -15 12 -35 21 -44 21 -10
0 -28 9 -41 21 l-24 20 25 -7 c14 -4 34 -10 45 -14z m-8548 -6 c-3 -3 -12 -4
-19 -1 -8 3 -5 6 6 6 11 1 17 -2 13 -5z m-78 -101 c-22 -29 -41 -41 -84 -53
-22 -6 -49 -15 -60 -19 -94 -40 -145 -59 -173 -65 -17 -4 -32 -12 -32 -17 0
-5 -8 -9 -17 -9 -10 0 -35 -6 -58 -14 -133 -46 -151 -48 -212 -30 -32 10 -62
21 -67 26 -19 16 2 17 45 3 40 -14 53 -14 107 -1 33 8 63 11 66 8 3 -3 6 0 6
6 0 7 3 11 8 10 4 -2 21 3 37 9 65 26 431 159 444 162 2 1 -3 -7 -10 -16z
m8940 -409 c3 -16 1 -17 -13 -5 -19 16 -21 34 -3 29 6 -3 14 -13 16 -24z m76
-4 c3 -5 1 -10 -4 -10 -6 0 -11 5 -11 10 0 6 2 10 4 10 3 0 8 -4 11 -10z m146
-137 c32 -34 59 -66 59 -70 -1 -11 -150 148 -162 172 -5 12 2 8 17 -10 15 -16
54 -58 86 -92z m92 -112 c25 -43 21 -50 -8 -11 -27 37 -29 40 -17 40 4 0 15
-13 25 -29z m37 -61 c0 -5 -2 -10 -4 -10 -3 0 -8 5 -11 10 -3 6 -1 10 4 10 6
0 11 -4 11 -10z m18 -61 c-3 -8 -7 -3 -11 10 -4 17 -3 21 5 13 5 -5 8 -16 6
-23z m-114 -128 c-5 -6 -24 21 -25 36 -1 5 -10 20 -20 35 -10 14 -19 30 -19
35 0 4 16 -16 35 -46 19 -30 32 -57 29 -60z m130 93 c3 -8 2 -12 -4 -9 -6 3
-10 10 -10 16 0 14 7 11 14 -7z m70 -181 c3 -14 12 -47 22 -75 9 -27 14 -51
12 -53 -2 -3 -15 28 -27 68 -13 40 -32 93 -42 119 -11 26 -19 53 -19 60 0 18
49 -88 54 -119z m-7484 -253 c0 -5 -4 -10 -10 -10 -5 0 -10 5 -10 10 0 6 5 10
10 10 6 0 10 -4 10 -10z m-435 -85 c-16 -8 -40 -14 -51 -15 -12 0 -41 -7 -64
-15 -23 -8 -52 -14 -64 -14 -20 1 -20 2 -1 6 11 3 31 10 45 16 14 5 34 12 45
14 11 2 24 8 29 13 6 6 28 10 51 9 l40 -1 -30 -13z m-1055 -195 c-8 -5 -22
-10 -30 -10 -13 0 -13 1 0 10 8 5 22 10 30 10 13 0 13 -1 0 -10z m-612 -67
c-10 -2 -28 -2 -40 0 -13 2 -5 4 17 4 22 1 32 -1 23 -4z m49 1 c-3 -3 -12 -4
-19 -1 -8 3 -5 6 6 6 11 1 17 -2 13 -5z m9773 -294 c0 -5 -2 -10 -4 -10 -3 0
-8 5 -11 10 -3 6 -1 10 4 10 6 0 11 -4 11 -10z m-7291 -345 c5 2 8 -18 7 -45
0 -28 -4 -50 -8 -50 -4 0 -8 -15 -8 -32 0 -22 -3 -28 -9 -20 -4 7 -7 28 -6 45
1 18 3 61 5 97 2 41 5 53 7 32 2 -18 8 -30 12 -27z m6511 -196 c0 -5 -9 -9
-20 -9 -19 0 -26 11 -14 23 8 8 34 -3 34 -14z m7 -135 c-3 -3 -12 -4 -19 -1
-8 3 -5 6 6 6 11 1 17 -2 13 -5z m-6532 -171 c-3 -15 -11 -30 -16 -33 -4 -3
-10 -16 -12 -28 -2 -12 -6 -24 -10 -28 -10 -11 3 49 15 63 6 7 7 13 4 13 -4 0
-2 9 4 20 15 29 23 25 15 -7z m6831 -220 c-4 -4 -12 -1 -19 7 -9 10 -9 11 1 6
7 -4 12 -2 13 6 0 11 2 11 6 0 3 -7 2 -16 -1 -19z m185 -184 c26 -26 24 -37
-4 -32 -13 3 -32 18 -42 35 -17 30 -17 30 5 23 12 -4 31 -16 41 -26z m-45
-111 c9 -14 -2 -21 -25 -13 -28 8 -28 35 -1 28 11 -3 23 -10 26 -15z m-836 -8
c0 -5 -2 -10 -4 -10 -3 0 -8 5 -11 10 -3 6 -1 10 4 10 6 0 11 -4 11 -10z m140
-80 c0 -5 -5 -10 -11 -10 -5 0 -7 5 -4 10 3 6 8 10 11 10 2 0 4 -4 4 -10z
m-6292 -155 c0 -16 -2 -15 -8 5 -4 14 -8 34 -8 45 0 16 2 15 8 -5 4 -14 8 -34
8 -45z m32 -147 c0 -5 -4 -8 -10 -8 -5 0 -10 10 -10 23 0 18 2 19 10 7 5 -8
10 -18 10 -22z m13 -48 c3 -11 2 -18 -3 -15 -4 3 -10 14 -13 25 -3 11 -2 18 3
15 4 -3 10 -14 13 -25z m-53 -284 c0 -2 -7 -6 -15 -10 -8 -3 -15 -1 -15 4 0 6
7 10 15 10 8 0 15 -2 15 -4z m-170 -30 c0 -9 -30 -14 -35 -6 -4 6 3 10 14 10
12 0 21 -2 21 -4z m5875 -307 c-10 -15 -25 -10 -19 6 4 8 10 12 15 9 5 -3 7
-10 4 -15z m223 -915 c25 -7 30 -45 8 -63 -11 -9 -18 -8 -30 4 -9 9 -16 19
-17 23 0 4 -2 15 -4 25 -3 18 6 20 43 11z m1252 -174 c0 -5 -2 -10 -4 -10 -3
0 -8 5 -11 10 -3 6 -1 10 4 10 6 0 11 -4 11 -10z m-7461 -216 c2 -2 0 -18 -5
-36 -8 -27 -15 -33 -34 -31 -14 1 -19 0 -12 -3 18 -8 15 -27 -4 -20 -8 3 -13
2 -10 -3 3 -4 -6 -19 -19 -31 -14 -13 -25 -18 -25 -12 0 7 5 12 10 12 6 0 10
5 10 10 0 7 -6 7 -20 0 -26 -14 -27 8 -1 41 10 13 26 39 35 57 15 29 21 33 44
27 15 -4 29 -8 31 -11z m1622 -78 c5 3 9 1 9 -5 0 -6 16 -13 35 -17 37 -7 40
-13 8 -18 -10 -2 -27 3 -38 10 -11 8 -27 14 -37 14 -10 0 -18 4 -18 9 0 12 24
20 28 9 2 -4 8 -6 13 -2z m-1771 -126 c0 -5 -7 -10 -16 -10 -8 0 -12 5 -9 10
3 6 10 10 16 10 5 0 9 -4 9 -10z m95 -10 c3 -6 -1 -7 -9 -4 -18 7 -21 14 -7
14 6 0 13 -4 16 -10z m1490 -7 c20 -12 20 -12 -3 -33 -27 -26 -31 -24 -36 17
-3 32 4 36 39 16z m-1509 -15 c-3 -7 -9 -20 -12 -28 -10 -24 -74 -74 -74 -58
0 8 11 21 25 28 13 7 22 17 19 22 -3 5 2 18 12 28 22 22 38 26 30 8z m-113
-153 c-3 -9 -8 -14 -10 -11 -3 3 -2 9 2 15 9 16 15 13 8 -4z m-38 -66 c-14
-40 -29 -58 -47 -59 -9 0 22 68 41 92 22 25 23 17 6 -33z m2895 41 c0 -5 -7
-7 -15 -4 -8 4 -15 8 -15 10 0 2 7 4 15 4 8 0 15 -4 15 -10z m35 -9 c3 -5 1
-12 -4 -15 -5 -3 -11 1 -15 9 -6 16 9 21 19 6z m260 -30 c3 -6 -4 -8 -16 -6
-30 6 -37 15 -11 15 11 0 23 -4 27 -9z m-3295 -51 c0 -5 -4 -10 -10 -10 -5 0
-10 5 -10 10 0 6 5 10 10 10 6 0 10 -4 10 -10z m1365 -10 c-3 -5 -12 -10 -18
-10 -7 0 -6 4 3 10 19 12 23 12 15 0z m-1395 -44 c-5 -13 -6 -27 -3 -30 4 -3
1 -6 -5 -6 -7 0 -12 2 -12 4 0 11 20 56 25 56 2 0 0 -11 -5 -24z m3638 -28
c15 -18 14 -24 -3 -58 -16 -31 -34 -40 -36 -17 0 10 -2 10 -6 0 -7 -19 -25
-15 -21 5 1 9 -1 22 -5 29 -4 7 4 20 19 32 31 24 38 25 52 9z m128 -43 c-2
-31 -37 -85 -56 -85 -12 0 -30 49 -20 55 5 3 7 11 4 18 -3 8 9 20 28 29 46 22
46 22 44 -17z m-3789 7 c-10 -10 -17 -25 -17 -32 0 -10 -3 -11 -11 -3 -8 8 -6
17 8 31 10 11 22 21 27 21 5 1 2 -7 -7 -17z m4153 -57 c0 -14 -4 -25 -9 -25
-5 0 -13 -10 -17 -22 -6 -21 -8 -21 -13 -5 -6 17 -9 17 -31 -5 -14 -13 -32
-24 -40 -23 -8 0 -22 -8 -32 -18 -9 -10 -19 -14 -22 -8 -9 13 61 87 104 110
49 26 60 25 60 -4z m-520 -16 c0 -5 4 -8 9 -5 15 9 31 -18 21 -34 -19 -30 -12
-43 19 -37 25 5 29 3 28 -13 -1 -10 -5 -16 -9 -14 -4 3 -8 -2 -8 -10 0 -24 -1
-30 -11 -48 -7 -13 -6 -18 2 -18 7 0 10 -2 7 -5 -3 -3 -17 0 -32 6 -25 12 -25
13 -10 31 21 22 9 24 -13 3 -8 -9 -13 -25 -10 -36 4 -15 2 -18 -7 -10 -7 6
-16 8 -19 4 -4 -3 -7 1 -7 10 0 8 -5 17 -11 19 -7 2 -7 12 0 31 6 15 7 27 3
27 -4 0 -8 9 -9 20 -1 11 2 20 8 20 5 0 9 10 9 23 0 23 17 47 32 47 4 0 8 -5
8 -11z m-3688 -41 c-9 -9 -12 -7 -12 12 0 19 3 21 12 12 9 -9 9 -15 0 -24z
m2975 -20 c-3 -8 -6 -5 -6 6 -1 11 2 17 5 13 3 -3 4 -12 1 -19z m839 -22 c-4
-17 -11 -23 -20 -20 -16 6 -10 34 8 46 15 10 19 2 12 -26z m-3829 8 c-3 -3
-12 -4 -19 -1 -8 3 -5 6 6 6 11 1 17 -2 13 -5z m5067 -27 c-5 -13 -44 -41 -44
-31 0 5 41 43 47 44 1 0 0 -6 -3 -13z m-5064 -14 c0 -17 -19 -37 -27 -29 -4 5
-2 11 5 13 6 3 10 9 6 14 -3 5 0 9 5 9 6 0 11 -3 11 -7z m4220 -5 c0 -22 -57
-82 -65 -68 -5 8 -11 7 -23 -3 -10 -9 -28 -17 -42 -19 -14 -2 -24 -9 -23 -15
1 -6 -6 -9 -17 -6 -11 3 -25 -3 -36 -16 -10 -11 -21 -18 -24 -16 -4 2 -13 -7
-20 -20 -25 -46 -27 -26 -4 24 22 44 32 53 103 89 44 22 82 38 85 35 3 -4 6
-1 6 5 0 9 9 13 53 21 4 0 7 -5 7 -11z m-3315 -38 c-10 -11 -21 -18 -25 -15
-3 2 -14 -5 -24 -16 -10 -12 -24 -18 -32 -15 -9 3 -12 1 -9 -4 3 -6 -1 -13 -9
-16 -9 -3 -38 -28 -64 -55 -34 -34 -54 -48 -66 -43 -9 3 -16 11 -16 16 0 6 7
8 14 5 10 -4 13 -1 10 7 -5 13 85 86 105 86 5 0 11 4 13 8 4 11 112 71 117 66
2 -2 -4 -13 -14 -24z m2075 -14 c0 -2 -7 -7 -16 -10 -8 -3 -12 -2 -9 4 6 10
25 14 25 6z m-3070 -30 c0 -8 -4 -18 -10 -21 -5 -3 -10 3 -10 14 0 12 5 21 10
21 6 0 10 -6 10 -14z m423 -15 c-13 -11 -23 -25 -23 -32 0 -10 -2 -10 -12 0
-10 11 -10 14 0 18 6 3 12 11 12 19 0 8 10 14 23 14 l22 -1 -22 -18z m3914
-27 c7 -20 -5 -32 -39 -38 -34 -6 -35 1 -5 31 27 26 36 28 44 7z m1797 -18
c30 -40 31 -43 11 -43 -8 0 -15 5 -15 10 0 5 -8 17 -17 26 -10 9 -19 22 -20
29 -5 23 14 12 41 -22z m-3099 14 c3 -5 1 -10 -4 -10 -6 0 -11 5 -11 10 0 6 2
10 4 10 3 0 8 -4 11 -10z m772 -14 c12 -13 19 -26 17 -29 -3 -3 7 -7 21 -11
32 -8 35 -43 3 -48 -13 -2 -29 -18 -41 -41 -12 -24 -25 -36 -33 -33 -8 3 -14
-1 -14 -8 0 -8 -6 -16 -14 -19 -31 -12 -47 87 -24 154 13 38 27 51 46 44 7 -3
10 0 7 5 -12 20 12 9 32 -14z m342 -3 c-4 -24 3 -35 17 -29 28 11 34 -4 15
-37 -12 -21 -26 -33 -44 -35 -28 -3 -71 -48 -61 -63 8 -14 -10 -11 -25 4 -10
10 -11 9 -6 -3 6 -18 -41 -50 -74 -50 -18 0 -19 3 -9 33 12 38 85 110 101 100
7 -3 9 -3 5 2 -4 4 7 15 25 24 17 9 32 23 32 31 0 8 5 18 10 22 13 10 15 10
14 1z m-33 -25 c4 -7 4 -10 -1 -6 -4 4 -14 3 -21 -3 -15 -12 -37 -3 -29 12 9
13 43 11 51 -3z m1771 -40 c-2 -13 -4 -5 -4 17 -1 22 1 32 4 23 2 -10 2 -28 0
-40z m-1552 -30 c-4 -18 -11 -37 -16 -42 -5 -6 -9 -19 -9 -31 0 -30 -19 -45
-57 -45 -18 0 -32 -3 -30 -7 2 -8 -6 -13 -23 -13 -19 0 -10 27 20 65 17 21 30
44 30 51 0 17 29 46 40 39 5 -3 11 -1 15 5 3 5 13 10 21 10 12 0 14 -7 9 -32z
m895 -6 c0 -10 -22 -32 -32 -32 -4 0 -8 5 -8 11 0 5 5 7 10 4 6 -3 10 1 10 9
0 9 5 16 10 16 6 0 10 -4 10 -8z m-1080 -44 c0 -5 -16 -5 -38 1 -1 1 3 7 10
15 12 13 27 5 28 -16z m20 11 c0 -6 -4 -7 -10 -4 -5 3 -10 11 -10 16 0 6 5 7
10 4 6 -3 10 -11 10 -16z m1440 -5 c0 -8 -5 -12 -10 -9 -6 4 -8 11 -5 16 9 14
15 11 15 -7z m-4960 -4 c0 -5 -4 -10 -10 -10 -5 0 -10 5 -10 10 0 6 5 10 10
10 6 0 10 -4 10 -10z m1435 0 c3 -5 1 -10 -4 -10 -6 0 -11 5 -11 10 0 6 2 10
4 10 3 0 8 -4 11 -10z m2020 -10 c3 -5 1 -10 -4 -10 -6 0 -11 5 -11 10 0 6 2
10 4 10 3 0 8 -4 11 -10z m-3520 -30 c3 -5 1 -10 -4 -10 -6 0 -11 5 -11 10 0
6 2 10 4 10 3 0 8 -4 11 -10z m3555 -32 c0 -34 -24 -57 -65 -63 -5 0 -9 -6 -8
-12 1 -6 -6 -9 -17 -6 -13 3 -34 -5 -58 -23 -20 -16 -40 -30 -44 -30 -5 -1
-12 -2 -17 -3 -5 0 -17 -8 -26 -17 -8 -9 -22 -13 -30 -10 -12 4 -11 14 7 57
22 51 44 72 57 51 8 -13 51 -5 51 9 0 5 6 8 13 7 6 -2 11 3 9 10 -1 8 2 11 7
8 5 -4 19 3 30 15 13 14 26 19 40 14 12 -4 21 -2 21 4 0 6 7 11 15 11 9 0 15
-9 15 -22z m2131 -25 c13 -16 12 -17 -3 -4 -10 7 -18 15 -18 17 0 8 8 3 21
-13z m-3781 -177 c0 -2 -7 -9 -15 -16 -12 -10 -15 -10 -15 4 0 9 7 16 15 16 8
0 15 -2 15 -4z"/>
<path d="M17551 16104 c0 -11 3 -14 6 -6 3 7 2 16 -1 19 -3 4 -6 -2 -5 -13z"/>
<path d="M17151 13504 c0 -11 3 -14 6 -6 3 7 2 16 -1 19 -3 4 -6 -2 -5 -13z"/>
<path d="M17170 13050 c0 -5 5 -10 11 -10 5 0 7 5 4 10 -3 6 -8 10 -11 10 -2
0 -4 -4 -4 -10z"/>
<path d="M17190 13021 c0 -6 4 -13 10 -16 6 -3 7 1 4 9 -7 18 -14 21 -14 7z"/>
<path d="M17630 12758 c1 -19 49 -105 49 -88 1 18 -36 100 -44 100 -3 0 -5 -6
-5 -12z"/>
<path d="M18190 10724 c0 -8 5 -12 10 -9 6 4 8 11 5 16 -9 14 -15 11 -15 -7z"/>
<path d="M11130 10446 c0 -11 21 -30 55 -51 l30 -19 -26 25 c-38 37 -59 52
-59 45z"/>
<path d="M10780 10290 c-13 -8 -12 -10 3 -10 9 0 17 5 17 10 0 12 -1 12 -20 0z"/>
<path d="M10783 10243 c-3 -10 -8 -21 -9 -24 -2 -4 2 -9 10 -12 9 -4 13 3 12
24 -1 33 -4 36 -13 12z"/>
<path d="M13257 10064 c6 -15 23 -19 23 -5 0 5 -7 11 -14 14 -10 4 -13 1 -9
-9z"/>
<path d="M12004 10004 c3 -8 -1 -14 -10 -14 -8 0 -12 -4 -9 -10 4 -6 16 -3 31
6 25 17 25 26 -2 30 -10 2 -14 -3 -10 -12z"/>
<path d="M12000 9948 c0 -9 -6 -18 -12 -21 -10 -4 -10 -7 0 -18 10 -11 12 -10
12 3 0 9 4 18 10 20 6 2 6 8 0 18 -8 13 -10 13 -10 -2z"/>
<path d="M10200 9929 c0 -5 5 -7 10 -4 6 3 10 8 10 11 0 2 -4 4 -10 4 -5 0
-10 -5 -10 -11z"/>
<path d="M11941 9852 c-1 -7 -8 -20 -16 -29 -8 -8 -12 -20 -8 -26 5 -8 8 -8
11 1 2 7 7 10 12 7 12 -8 18 18 9 40 -4 11 -8 14 -8 7z"/>
<path d="M15086 9814 c-4 -10 -13 -14 -25 -11 -17 4 -18 2 -11 -19 6 -14 6
-24 1 -24 -5 0 -11 6 -14 13 -3 8 -13 2 -31 -16 -31 -34 -35 -52 -6 -37 11 6
20 8 20 5 0 -3 9 4 20 15 12 12 26 18 31 14 8 -4 9 1 4 17 -6 20 -5 22 6 12
21 -20 28 -15 23 14 -7 35 -10 38 -18 17z"/>
<path d="M11885 9730 c-3 -5 -3 -15 1 -22 4 -7 3 -8 -4 -4 -8 5 -12 0 -12 -13
0 -12 -5 -21 -11 -21 -6 0 -9 -6 -6 -12 2 -7 0 -21 -5 -30 -7 -14 -5 -16 7
-12 9 4 15 14 13 23 -2 9 7 26 20 38 13 12 21 27 17 34 -4 6 -1 15 6 20 11 7
11 9 -3 9 -9 0 -20 -4 -23 -10z"/>
<path d="M15240 9658 c0 -4 6 -8 14 -8 8 0 17 4 20 8 2 4 -4 8 -15 8 -10 0
-19 -4 -19 -8z"/>
<path d="M15326 9633 c-6 -14 -5 -15 5 -6 7 7 10 15 7 18 -3 3 -9 -2 -12 -12z"/>
<path d="M13655 9620 c-3 -5 -1 -10 4 -10 6 0 11 5 11 10 0 6 -2 10 -4 10 -3
0 -8 -4 -11 -10z"/>
<path d="M15346 9613 c-3 -4 -23 -12 -43 -19 -29 -10 -40 -10 -51 -1 -13 10
-14 8 -8 -11 6 -18 4 -21 -11 -15 -15 6 -16 4 -6 -9 7 -8 10 -18 6 -21 -10
-11 6 -8 30 4 12 6 30 21 40 33 10 11 16 15 12 9 -3 -7 -3 -13 0 -13 10 0 49
40 43 45 -2 3 -8 2 -12 -2z"/>
<path d="M11815 9600 c-3 -5 -3 -10 0 -10 4 0 0 -7 -8 -15 -8 -8 -25 -30 -37
-50 -12 -19 -26 -35 -31 -35 -5 0 -9 -7 -9 -16 0 -8 -4 -12 -10 -9 -5 3 -7 0
-4 -8 3 -8 -6 -21 -20 -31 -14 -9 -33 -30 -41 -46 -9 -17 -20 -28 -25 -25 -6
4 -10 0 -10 -7 0 -7 -9 -19 -20 -26 -11 -7 -20 -23 -20 -37 0 -14 -5 -25 -11
-25 -5 0 -7 -4 -4 -10 3 -5 11 -10 16 -10 6 0 7 5 4 10 -3 6 2 10 11 10 10 0
15 3 11 6 -3 4 12 23 33 43 22 21 40 41 40 47 0 5 12 17 28 27 15 11 38 41 51
68 14 26 31 51 38 54 8 2 12 9 8 14 -3 6 3 15 14 20 10 6 21 18 25 26 7 19
-19 51 -29 35z"/>
<path d="M15170 9550 c-8 -5 -18 -6 -22 -4 -4 3 -8 -2 -8 -10 0 -9 -8 -16 -18
-16 -9 0 -33 -18 -52 -40 l-34 -40 -25 23 c-19 18 -23 19 -18 5 7 -20 -9 -25
-16 -5 -4 9 -6 9 -6 -1 -1 -19 -50 -64 -61 -57 -15 9 -12 25 6 25 8 0 12 5 9
10 -10 17 -65 -28 -65 -53 0 -17 -2 -19 -9 -7 -6 8 -7 18 -5 22 3 4 0 8 -6 8
-5 0 -18 -13 -28 -29 -13 -22 -20 -26 -29 -16 -9 10 -9 15 0 25 7 6 -6 1 -28
-11 -22 -13 -42 -27 -43 -31 -2 -5 -21 -11 -42 -14 -27 -4 -41 -13 -49 -30 -6
-15 -7 -25 0 -29 5 -4 7 -11 4 -16 -4 -5 1 -9 10 -9 10 0 13 5 9 12 -5 8 -2 9
9 5 9 -3 23 0 30 8 8 7 33 19 55 26 23 7 42 16 42 21 0 4 6 8 13 8 7 0 19 6
26 13 6 6 15 12 19 13 23 3 62 17 62 23 0 11 70 31 86 24 8 -3 14 0 14 6 0 6
6 11 13 11 7 0 29 11 49 25 20 14 45 25 55 25 22 1 53 23 53 38 0 6 8 15 18
21 11 7 14 13 7 20 -6 6 -16 7 -25 1z m-280 -150 c0 -5 -2 -10 -4 -10 -3 0 -8
5 -11 10 -3 6 -1 10 4 10 6 0 11 -4 11 -10z m-50 -20 c0 -5 -2 -10 -4 -10 -3
0 -8 5 -11 10 -3 6 -1 10 4 10 6 0 11 -4 11 -10z"/>
<path d="M10495 9480 c3 -5 8 -10 11 -10 2 0 4 5 4 10 0 6 -5 10 -11 10 -5 0
-7 -4 -4 -10z"/>
<path d="M10486 9457 c3 -10 9 -15 12 -12 3 3 0 11 -7 18 -10 9 -11 8 -5 -6z"/>
<path d="M16050 9439 c0 -5 5 -7 10 -4 6 3 10 8 10 11 0 2 -4 4 -10 4 -5 0
-10 -5 -10 -11z"/>
<path d="M15773 9424 c3 -4 0 -13 -8 -21 -22 -22 -18 -35 5 -16 22 19 27 43 8
43 -6 0 -9 -3 -5 -6z"/>
<path d="M15085 9400 c-17 -19 -17 -20 -1 -20 17 0 46 22 46 34 0 13 -28 5
-45 -14z"/>
<path d="M10018 9351 c-8 -10 -12 -24 -9 -30 5 -7 12 -2 19 14 7 16 17 23 24
19 7 -4 8 -3 4 4 -10 17 -19 15 -38 -7z"/>
<path d="M14941 9352 c-6 -12 -17 -19 -25 -16 -7 3 -28 -8 -47 -25 -23 -22
-39 -29 -55 -25 -12 3 -25 1 -29 -5 -3 -6 -10 -9 -15 -6 -10 6 -35 -23 -26
-32 3 -3 6 -1 6 6 0 8 7 10 20 6 11 -3 20 -2 20 3 0 4 15 8 34 8 24 -1 32 -5
28 -14 -4 -12 -1 -12 17 -1 11 8 21 17 21 21 0 5 9 8 20 8 11 0 20 5 20 10 0
6 7 10 16 10 8 0 23 7 31 16 15 14 14 17 -5 36 l-20 20 -11 -20z"/>
<path d="M15024 9357 c-17 -20 -24 -46 -13 -53 10 -6 59 43 59 59 0 11 -34 7
-46 -6z"/>
<path d="M9995 9269 c4 -5 -1 -16 -10 -25 -24 -24 -10 -29 19 -7 31 22 33 38
6 40 -11 1 -18 -2 -15 -8z"/>
<path d="M10880 9260 c0 -5 5 -10 10 -10 6 0 10 5 10 10 0 6 -4 10 -10 10 -5
0 -10 -4 -10 -10z"/>
<path d="M15780 9249 c0 -4 -16 -23 -36 -43 -19 -19 -33 -40 -29 -46 10 -16
41 -11 60 10 12 13 21 17 25 10 4 -7 18 -8 33 -5 15 4 25 11 22 15 -3 5 5 10
17 13 20 3 18 5 -10 12 -24 5 -30 11 -23 18 18 18 13 22 -24 22 -19 0 -35 -3
-35 -6z"/>
<path d="M10765 9180 c-3 -5 -1 -10 4 -10 6 0 11 5 11 10 0 6 -2 10 -4 10 -3
0 -8 -4 -11 -10z"/>
<path d="M9990 9146 c0 -8 -4 -16 -9 -18 -4 -1 -11 -14 -15 -28 -3 -14 -3 -19
0 -12 3 6 12 12 20 12 9 0 14 11 14 30 0 17 -2 30 -5 30 -3 0 -5 -6 -5 -14z"/>
<path d="M6627 8165 c-20 -14 -38 -25 -41 -25 -5 0 -84 -48 -118 -72 -18 -12
-26 -54 -9 -43 8 5 18 -14 26 -49 1 -6 6 -19 10 -29 11 -26 -4 -36 -74 -49
-79 -15 -103 -41 -76 -82 10 -14 18 -26 19 -26 0 0 17 5 36 10 54 16 106 -11
115 -58 4 -19 19 -47 34 -61 21 -20 28 -36 29 -67 2 -42 2 -42 -53 -64 -31
-13 -61 -32 -67 -44 -13 -26 -58 -65 -76 -66 -7 0 -21 -15 -32 -32 -11 -18
-20 -30 -20 -26 0 7 -12 -1 -66 -47 l-24 -20 29 -32 c22 -25 37 -33 64 -33 19
0 40 7 47 15 7 8 21 15 32 15 10 0 16 5 13 10 -4 6 6 10 22 10 15 0 34 4 41 8
24 16 68 2 70 -21 1 -12 4 -31 6 -42 2 -11 -5 -45 -16 -75 l-18 -54 21 -30
c24 -32 25 -36 14 -81 -7 -31 -41 -201 -49 -245 -3 -14 -11 -56 -19 -95 -8
-38 -15 -77 -15 -85 0 -8 -3 -37 -6 -65 -3 -27 -8 -95 -12 -150 -3 -55 -11
-106 -17 -113 -7 -9 -12 -83 -13 -195 -2 -180 -3 -198 -22 -247 -5 -14 -10
-47 -11 -75 -1 -49 -78 -297 -93 -303 -5 -2 -8 -12 -8 -21 0 -10 -9 -26 -20
-36 -10 -9 -19 -20 -18 -24 3 -24 -3 -33 -15 -23 -10 9 -48 -9 -158 -73 -79
-47 -149 -85 -156 -85 -6 0 -17 -19 -25 -42 -12 -36 -12 -54 -1 -108 11 -57
10 -69 -4 -96 -15 -30 -15 -33 7 -64 22 -31 25 -32 79 -27 106 11 151 29 151
63 0 7 13 15 30 19 18 4 32 15 36 28 13 45 207 194 283 217 24 8 55 23 69 34
15 12 52 26 84 33 31 6 66 20 77 30 11 10 42 27 68 37 26 11 82 35 123 53 128
59 192 84 197 79 5 -5 151 70 163 83 9 10 80 41 94 41 8 0 19 7 26 15 7 8 16
12 21 9 5 -3 9 -1 9 4 0 12 76 46 88 38 5 -3 20 2 33 12 13 10 32 21 42 25 9
3 17 11 17 17 0 5 13 10 30 10 32 0 80 19 80 31 0 4 10 11 22 15 13 4 43 24
68 45 25 20 70 49 102 62 31 14 79 44 108 66 28 23 56 41 61 41 5 0 48 37 95
83 47 45 91 84 97 86 32 11 160 157 192 218 19 37 35 72 35 78 0 5 11 22 24
36 35 38 44 60 56 135 20 125 25 148 45 178 9 14 18 40 19 58 2 18 6 44 10 58
4 16 -3 65 -19 130 -15 58 -30 120 -35 138 -5 20 -32 57 -68 93 -40 41 -62 72
-66 94 -5 24 -14 36 -36 45 -17 7 -30 21 -32 33 -2 12 -12 23 -23 25 -11 2
-29 12 -40 22 -11 10 -38 23 -60 30 -22 7 -46 19 -52 28 -16 19 -17 72 -2 72
24 0 1 24 -27 27 -16 2 -31 9 -33 14 -2 6 -23 31 -48 57 -37 38 -51 46 -77 44
-24 -2 -39 5 -66 30 -19 18 -47 39 -61 47 -14 7 -41 26 -60 42 -19 16 -38 28
-44 27 -5 -1 -26 5 -45 14 -19 8 -52 20 -73 27 -20 7 -41 20 -47 30 -8 16 -29
22 -192 57 -5 1 -10 3 -13 4 -13 6 -109 21 -115 18 -3 -2 -18 5 -33 15 -15 10
-32 15 -36 12 -5 -3 -16 2 -24 10 -9 8 -21 15 -27 15 -7 0 -24 8 -38 18 -44
29 -75 42 -107 45 -16 1 -37 10 -45 20 -13 14 -34 17 -138 18 -67 1 -125 5
-127 9 -10 17 -73 8 -108 -15z m533 -475 c30 -17 61 -30 67 -30 14 0 194 -65
231 -83 13 -6 39 -11 58 -11 19 0 34 -3 34 -6 0 -9 61 -43 67 -37 14 14 138
-56 207 -117 16 -15 47 -31 68 -36 21 -6 54 -26 73 -45 19 -19 40 -35 48 -35
7 0 22 -10 33 -22 11 -13 44 -43 73 -68 30 -25 61 -52 71 -60 9 -8 20 -25 24
-36 4 -12 22 -38 41 -57 22 -22 35 -46 35 -62 0 -14 11 -42 25 -63 19 -30 78
-191 77 -212 0 -3 4 -12 9 -21 12 -24 14 -120 2 -127 -10 -7 -57 -79 -63 -97
-2 -5 -8 -14 -12 -20 -5 -5 -30 -44 -57 -86 -46 -72 -65 -90 -266 -265 -27
-24 -75 -58 -107 -76 -32 -18 -60 -40 -63 -49 -6 -18 -119 -83 -147 -85 -9 -1
-31 -13 -48 -28 -17 -14 -38 -26 -46 -26 -8 0 -14 -5 -14 -11 0 -5 -4 -7 -10
-4 -5 3 -10 1 -10 -4 0 -6 -7 -11 -15 -11 -9 0 -30 -8 -48 -17 -18 -9 -35 -16
-39 -15 -5 1 -8 -3 -8 -9 0 -5 -4 -7 -10 -4 -5 3 -10 1 -10 -4 0 -6 -5 -11
-11 -11 -10 0 -56 -24 -169 -89 -8 -5 -41 -16 -72 -25 -39 -11 -59 -23 -63
-36 -4 -11 -9 -21 -13 -21 -4 -1 -18 -3 -31 -4 -14 -1 -32 -12 -41 -23 -12
-15 -21 -17 -33 -10 -18 10 -115 -21 -204 -65 -26 -13 -88 -34 -138 -46 -49
-12 -97 -25 -105 -29 -25 -13 -55 -8 -58 10 -2 9 19 61 47 116 28 55 66 154
85 221 20 67 41 132 48 144 7 12 13 33 14 47 2 14 5 34 7 46 3 12 8 45 12 75
17 141 37 236 69 331 19 56 38 123 41 148 4 25 9 56 11 70 2 14 6 47 9 75 3
27 10 52 15 55 6 4 6 20 0 42 -9 32 -7 45 24 108 20 40 35 75 34 78 0 4 1 9 2
12 7 20 25 131 35 225 4 33 9 74 11 90 2 17 6 53 9 80 9 79 14 101 36 157 17
45 18 53 5 66 -32 32 31 132 84 131 8 0 40 -13 70 -29z"/>
<path d="M16023 8162 c-20 -2 -37 -11 -43 -23 -6 -10 -17 -19 -24 -19 -21 0
-58 -49 -102 -133 -21 -42 -47 -78 -57 -81 -9 -2 -22 -18 -28 -35 -6 -17 -15
-31 -20 -31 -5 0 -9 -7 -9 -15 0 -8 -4 -15 -9 -15 -5 0 -19 -28 -32 -62 -12
-34 -38 -81 -57 -106 -18 -24 -36 -56 -38 -71 -3 -14 -16 -46 -29 -71 -20 -37
-41 -82 -50 -110 -1 -3 -4 -12 -8 -20 -3 -8 -13 -37 -23 -65 -10 -27 -22 -56
-27 -62 -5 -7 -7 -13 -3 -13 9 0 -23 -60 -52 -97 -14 -17 -27 -39 -28 -48 -1
-10 -12 -36 -23 -59 -11 -22 -23 -58 -26 -78 -3 -21 -10 -38 -14 -38 -9 0 -21
-30 -25 -61 -3 -17 -29 -49 -41 -49 -22 0 -58 -83 -69 -160 -4 -32 -49 -196
-63 -230 -3 -8 -5 -23 -4 -32 1 -10 -4 -18 -12 -18 -8 0 -18 -11 -21 -24 -5
-19 -11 -24 -27 -21 -29 6 -61 36 -55 51 2 6 -6 22 -19 34 -14 13 -59 93 -102
179 -43 86 -81 158 -84 161 -3 3 -14 20 -23 38 -9 18 -42 74 -72 125 -37 61
-54 100 -51 114 3 17 -6 31 -37 57 -32 26 -42 42 -44 67 -3 33 -18 52 -34 43
-6 -4 -11 7 -7 19 0 1 -8 25 -19 52 -10 28 -24 79 -31 115 -17 101 -20 113
-26 140 -17 78 -16 117 5 170 l21 54 -22 49 -23 49 -47 -6 c-68 -8 -156 -45
-182 -75 -12 -15 -67 -52 -123 -83 -91 -52 -117 -62 -194 -73 -50 -8 -68 -14
-108 -34 -23 -12 -52 -21 -64 -21 -13 0 -34 -7 -46 -16 -12 -8 -22 -12 -22 -8
0 5 -5 3 -12 -4 -7 -7 -19 -12 -28 -12 -8 0 -33 -15 -55 -32 -23 -20 -48 -31
-61 -30 -17 2 -22 -1 -20 -15 4 -20 -11 -53 -22 -52 -4 1 -9 1 -12 -1 -3 -1
-16 -3 -30 -6 -29 -5 -112 -93 -105 -111 3 -7 8 -20 11 -28 4 -10 0 -15 -13
-15 -11 0 -23 3 -27 7 -15 15 -36 11 -36 -7 0 -11 -8 -25 -18 -32 -23 -16 -34
-45 -21 -53 14 -9 1 -25 -20 -25 -9 0 -35 -15 -57 -33 -33 -29 -58 -41 -109
-52 -5 -2 -28 -8 -50 -14 -31 -8 -49 -7 -80 4 -32 11 -42 11 -50 1 -10 -13
-95 -17 -95 -5 0 16 -69 -8 -112 -38 -26 -19 -52 -32 -57 -29 -5 3 -33 9 -63
12 -29 3 -57 10 -63 15 -14 14 -34 11 -65 -11 -47 -34 -76 -19 -96 48 -10 32
-17 62 -16 68 1 6 -5 24 -13 40 -20 39 -19 44 10 44 30 0 32 14 6 32 -12 8
-21 31 -25 63 -3 28 -8 61 -10 75 -3 14 -8 52 -11 85 -6 60 -8 74 -21 170 -4
28 -7 64 -8 80 0 17 -11 39 -22 50 -15 14 -24 38 -28 80 -15 130 -19 151 -26
165 -4 8 -6 40 -5 70 3 70 -30 129 -73 131 -54 3 -71 0 -92 -18 -21 -18 -53
-38 -142 -89 -27 -15 -48 -32 -48 -38 -1 -16 -36 -56 -50 -56 -6 0 -10 -6 -9
-12 3 -27 -2 -47 -14 -60 -12 -12 -26 -39 -32 -60 -2 -5 -4 -11 -5 -15 -1 -5
-2 -11 -2 -14 1 -4 -14 -17 -33 -30 -19 -13 -35 -28 -35 -33 0 -24 -72 -156
-85 -156 -8 0 -15 -3 -15 -7 0 -12 -90 -149 -90 -138 0 6 -23 -30 -49 -80 -27
-49 -55 -94 -63 -100 -7 -6 -19 -21 -26 -34 -8 -13 -23 -39 -33 -59 -43 -75
-100 -159 -139 -202 -56 -63 -96 -130 -114 -190 -9 -29 -29 -66 -46 -83 -16
-17 -31 -37 -31 -44 -1 -7 -2 -18 -3 -23 0 -6 -20 -19 -43 -30 -54 -24 -79
-60 -61 -89 11 -18 9 -23 -9 -41 -12 -11 -33 -20 -47 -20 -13 0 -26 -6 -29
-14 -8 -19 -67 -18 -74 1 -4 9 -14 12 -28 9 -28 -7 -88 -17 -146 -25 -4 -1
-24 -26 -44 -56 -21 -30 -44 -55 -51 -55 -6 0 -25 -16 -40 -37 -16 -20 -39
-48 -50 -62 -12 -14 -31 -45 -43 -69 -20 -40 -21 -46 -7 -65 40 -58 51 -67 76
-62 29 6 149 54 168 68 8 7 12 5 12 -7 0 -9 5 -25 12 -35 10 -17 7 -25 -23
-59 -45 -53 -69 -82 -99 -122 -80 -107 -91 -110 -180 -48 -54 38 -55 38 -71
19 -12 -15 -16 -38 -15 -88 1 -37 5 -73 9 -80 4 -6 3 -14 -2 -17 -5 -4 -7 -19
-4 -34 3 -15 5 -31 4 -37 -7 -54 -6 -107 5 -142 6 -23 10 -43 9 -45 -2 -2 -6
-19 -9 -40 -7 -48 17 -79 64 -81 32 -2 37 2 59 46 13 26 29 47 37 47 8 0 14 4
14 10 0 5 5 9 11 7 6 -1 20 22 30 51 10 29 32 69 48 90 17 20 31 42 31 49 0 6
14 21 30 33 17 12 30 30 30 40 0 10 7 20 15 24 8 3 14 9 13 14 -2 5 7 18 20
28 16 13 24 34 28 69 5 37 14 58 36 82 17 17 27 36 24 42 -8 12 43 141 56 141
5 0 16 16 23 35 12 27 22 35 50 41 28 5 35 11 35 30 0 20 5 24 28 24 15 0 43
10 62 23 37 25 76 32 86 16 3 -5 23 4 44 21 21 16 43 30 49 30 6 0 11 4 11 9
0 18 53 28 98 17 24 -5 24 -8 6 55 -5 19 -3 21 16 16 29 -7 55 6 95 49 22 23
35 30 45 24 8 -5 17 -7 21 -4 4 2 10 0 14 -6 9 -15 25 -2 25 20 0 13 10 20 33
25 117 23 143 29 153 37 7 5 38 8 70 7 69 -3 107 5 178 36 34 15 59 20 76 15
23 -6 26 -4 25 19 0 25 2 26 63 27 85 2 102 -12 106 -91 3 -39 -1 -70 -11 -88
-11 -21 -12 -43 -6 -85 7 -55 8 -68 4 -142 0 -19 0 -46 1 -60 1 -14 -1 -41 -5
-60 -5 -24 -1 -57 12 -104 19 -67 19 -71 2 -105 -13 -26 -16 -47 -10 -76 4
-22 5 -51 4 -65 -8 -68 -8 -88 3 -120 6 -19 13 -49 15 -67 3 -17 8 -37 12 -42
3 -6 7 -47 9 -91 1 -45 8 -86 14 -92 7 -7 12 -18 12 -26 0 -15 20 -37 63 -69
l30 -22 41 28 c61 42 86 73 81 99 -3 17 1 22 19 22 14 0 27 9 34 24 8 17 22
27 47 32 27 5 43 17 66 51 29 42 31 49 29 131 -3 122 -3 121 15 138 12 13 13
19 4 31 -7 7 -18 12 -24 9 -17 -6 -33 29 -39 84 -8 68 -14 90 -31 116 -11 18
-13 29 -6 43 7 12 7 21 -1 29 -5 5 -11 25 -12 44 -2 18 -8 43 -14 55 -8 15 -9
24 -2 28 6 4 9 26 5 53 -5 45 -12 164 -20 304 l-3 66 48 21 c27 12 55 21 62
21 8 0 51 15 96 34 78 33 97 35 142 21 10 -3 37 0 61 6 24 6 89 12 144 13 120
2 129 7 247 128 42 44 81 77 87 74 5 -4 18 5 28 18 10 13 41 43 68 66 128 109
187 175 227 254 33 65 43 77 59 73 19 -5 95 14 130 33 14 7 102 13 164 11 29
-1 28 -40 -1 -47 -29 -7 -39 -60 -23 -114 12 -38 11 -42 -14 -68 l-26 -27 35
-88 c32 -82 34 -92 25 -145 -6 -31 -15 -88 -22 -127 -6 -38 -20 -83 -31 -99
-16 -22 -19 -37 -14 -67 3 -21 3 -39 -2 -39 -19 0 -41 -67 -38 -115 3 -27 0
-63 -4 -80 -5 -16 -11 -41 -14 -55 -2 -14 -11 -52 -19 -85 -9 -33 -18 -71 -20
-85 -3 -14 -10 -45 -17 -70 -7 -25 -13 -49 -15 -55 -8 -36 -16 -85 -19 -118
-2 -20 -10 -45 -18 -55 -8 -9 -22 -51 -32 -92 -9 -41 -22 -82 -29 -91 -55 -74
-82 -99 -103 -99 -22 0 -23 -3 -19 -36 4 -31 -1 -43 -27 -73 l-32 -36 30 -3
c43 -5 49 -17 25 -49 -16 -21 -20 -36 -15 -61 5 -27 13 -34 47 -43 35 -9 47
-7 103 18 35 15 66 35 69 44 3 9 19 22 35 29 34 14 46 38 94 190 20 63 41 124
45 135 5 11 17 52 26 90 9 39 24 81 33 95 8 14 16 36 17 50 1 14 7 39 14 55
17 39 22 121 10 153 -6 17 -6 29 1 36 5 5 10 33 10 61 0 44 5 57 33 91 44 51
55 74 51 103 -3 13 0 47 5 75 9 47 8 53 -15 77 -13 14 -21 28 -17 32 3 4 1 7
-5 7 -18 0 -14 24 6 37 20 12 48 97 57 172 3 24 10 50 15 56 5 7 7 15 3 18 -3
4 -1 7 5 7 7 0 12 6 12 14 0 18 27 46 44 46 8 0 16 -12 19 -27 3 -16 17 -40
30 -55 13 -15 32 -48 42 -73 11 -25 25 -45 31 -45 7 0 15 -13 19 -30 3 -16 14
-32 24 -35 23 -7 45 -49 37 -70 -9 -23 16 -65 66 -112 31 -27 58 -69 88 -132
31 -66 55 -101 82 -123 32 -25 42 -43 60 -102 15 -51 27 -75 42 -82 11 -5 31
-25 44 -44 17 -26 31 -35 53 -37 41 -2 60 -10 58 -25 -1 -7 1 -25 5 -40 4 -15
3 -35 -2 -45 -8 -14 0 -32 42 -93 43 -62 51 -80 46 -105 -3 -16 -2 -50 3 -75
14 -70 16 -90 18 -172 1 -43 5 -78 9 -78 3 0 20 -27 36 -60 16 -33 33 -60 38
-60 15 0 103 69 137 107 25 30 38 36 64 35 26 -2 36 4 56 30 13 18 39 47 56
65 35 34 53 70 53 107 0 13 9 30 20 37 23 16 26 32 16 104 -4 28 -9 60 -10 73
-2 12 -10 30 -19 40 -10 11 -13 22 -7 31 8 13 -12 51 -47 89 -18 19 -24 51
-19 97 2 22 5 42 7 45 6 16 3 96 -5 102 -6 4 -6 24 1 52 9 40 8 49 -8 67 -10
11 -15 27 -12 35 3 8 0 20 -5 27 -7 8 -8 26 -2 52 5 22 10 56 10 76 0 20 8 54
17 75 21 49 25 64 23 89 -4 38 -2 60 5 90 4 17 8 39 9 50 0 11 9 29 19 40 28
30 46 70 52 112 12 89 17 109 32 131 8 13 23 49 34 80 10 30 30 75 44 98 14
23 25 58 25 78 0 24 10 47 34 78 19 24 60 95 91 158 88 182 102 205 121 202 9
-2 23 -10 31 -18 47 -47 205 -30 274 30 52 45 79 66 84 66 2 0 29 19 59 41 40
30 53 46 48 56 -38 67 -267 246 -307 239 -11 -2 -24 -1 -30 3 -5 3 -25 5 -42
3z m-4301 -570 c4 -1 8 -12 7 -24 0 -39 19 -112 30 -116 9 -3 9 -8 0 -18 -9
-11 -8 -21 1 -44 7 -16 16 -30 20 -30 13 0 20 -42 10 -61 -7 -12 -5 -21 5 -29
8 -7 15 -23 15 -35 0 -19 7 -25 43 -31 23 -4 45 -7 50 -6 4 1 7 -2 7 -8 0 -5
0 -13 0 -17 0 -4 -15 -7 -34 -8 -48 -1 -52 -9 -25 -47 38 -54 41 -56 70 -45
14 6 34 7 43 4 18 -7 17 -19 -7 -77 -5 -14 -11 -57 -12 -97 -2 -64 0 -74 21
-94 33 -31 29 -69 -6 -74 -50 -8 -97 -19 -105 -25 -5 -4 -21 -11 -35 -15 -14
-4 -50 -18 -80 -32 -30 -15 -71 -25 -90 -25 -19 1 -53 -3 -75 -9 -22 -6 -60
-13 -85 -15 -24 -1 -49 -9 -55 -16 -6 -8 -34 -14 -71 -14 -52 -2 -69 -8 -129
-44 -61 -37 -71 -40 -91 -29 -13 7 -48 13 -78 13 -77 2 -82 12 -41 73 19 28
32 53 29 56 -3 3 1 16 9 29 8 12 21 44 28 70 11 41 19 50 47 59 28 9 33 15 30
37 -2 20 6 35 30 56 17 16 32 38 32 48 0 11 7 18 20 18 11 0 21 7 21 15 1 8 3
29 4 45 1 17 3 31 5 33 1 1 3 10 5 21 8 41 27 73 53 88 37 22 75 64 77 85 2
26 40 97 81 151 20 26 45 59 56 75 12 15 26 27 33 27 13 0 54 49 54 64 -1 19
39 27 83 18z"/>
<path d="M17966 8151 c-3 -5 -53 -37 -110 -72 -73 -44 -108 -71 -121 -95 -9
-18 -24 -35 -31 -38 -8 -3 -14 -19 -14 -35 0 -16 -6 -31 -13 -34 -7 -3 -19
-24 -27 -47 -8 -24 -28 -53 -48 -70 -18 -15 -34 -34 -35 -42 -5 -28 -70 -148
-81 -148 -6 0 -31 -33 -56 -74 -25 -41 -48 -72 -51 -71 -3 2 -23 -28 -44 -68
-21 -40 -55 -95 -76 -123 -22 -28 -39 -54 -39 -58 0 -3 -12 -25 -27 -49 -41
-62 -46 -71 -66 -106 -10 -17 -38 -53 -63 -79 -47 -48 -91 -124 -114 -197 -7
-22 -26 -53 -41 -69 -15 -16 -31 -41 -34 -56 -4 -20 -15 -30 -43 -39 -20 -7
-45 -24 -56 -38 -16 -22 -17 -28 -5 -49 12 -23 10 -27 -15 -49 -15 -13 -34
-21 -43 -18 -8 3 -19 0 -24 -8 -11 -19 -79 -21 -79 -3 0 17 -5 17 -70 3 -74
-16 -83 -17 -103 -18 -9 -1 -16 -5 -15 -9 4 -12 -65 -101 -83 -107 -22 -7
-109 -120 -132 -170 l-18 -39 29 -41 c38 -54 67 -52 205 16 31 15 37 16 37 3
0 -8 6 -23 13 -34 8 -14 9 -23 1 -28 -5 -4 -52 -60 -103 -124 -78 -99 -97
-118 -120 -118 -15 0 -32 5 -39 12 -7 7 -12 9 -12 6 0 -3 -17 10 -37 28 -33
31 -39 33 -57 20 -20 -13 -21 -23 -21 -187 0 -100 5 -192 11 -216 7 -23 10
-44 8 -46 -2 -2 -6 -19 -9 -39 -8 -47 18 -79 65 -81 31 -2 37 2 55 38 19 38
50 70 69 70 5 0 17 24 28 54 10 30 27 64 37 75 10 12 26 35 34 51 9 17 27 39
41 49 14 10 26 27 26 37 0 11 5 19 10 19 6 0 10 5 10 12 0 7 12 22 26 33 21
17 28 32 30 70 3 36 11 56 31 77 14 15 28 42 30 59 4 36 39 120 54 130 5 3 18
21 27 40 9 19 23 35 30 35 6 1 21 2 32 3 14 1 20 8 20 26 0 23 18 32 53 26 4
-1 23 10 41 24 24 18 42 24 61 21 15 -3 29 -7 32 -9 2 -3 15 5 27 17 13 11 44
33 68 48 37 23 50 26 76 18 36 -10 48 0 32 29 -17 33 -12 42 21 39 27 -3 39 3
72 38 40 42 41 42 74 29 32 -13 33 -13 39 11 3 13 10 25 15 25 5 1 12 2 17 3
4 1 30 6 57 10 28 4 55 11 60 14 17 11 37 14 115 17 52 3 101 13 156 34 57 21
85 26 97 20 9 -6 17 -6 18 -2 1 4 2 17 3 28 1 18 9 20 64 21 83 2 100 -12 105
-90 3 -39 0 -68 -10 -88 -12 -22 -13 -43 -7 -86 10 -72 10 -88 3 -134 -3 -20
-2 -41 2 -45 5 -5 4 -33 -2 -64 -10 -48 -8 -65 10 -124 15 -50 17 -72 9 -82
-6 -7 -8 -13 -5 -13 3 0 0 -11 -7 -26 -9 -16 -11 -37 -7 -57 4 -18 6 -52 4
-77 -7 -74 -6 -82 12 -150 30 -115 39 -190 23 -190 -18 0 46 -117 80 -147 34
-30 38 -30 64 -17 15 8 46 32 69 53 31 30 39 44 34 60 -5 18 -2 21 19 21 19 0
27 7 32 24 4 19 15 26 43 31 60 10 112 92 104 165 -8 67 -7 135 1 137 17 3 25
27 15 46 -6 10 -16 16 -24 14 -17 -7 -37 38 -40 89 -1 23 -5 46 -9 53 -4 6 -5
11 -1 11 3 0 -2 15 -12 33 -9 17 -18 50 -19 72 -4 56 -11 90 -23 113 -8 15 -7
23 4 32 8 7 12 17 8 24 -10 16 -12 28 -18 146 -11 188 -12 235 -8 246 2 6 30
19 61 29 62 19 115 39 177 66 32 14 50 16 90 8 34 -6 60 -6 85 3 19 7 80 13
136 13 120 2 130 7 246 128 42 43 81 76 86 73 12 -7 73 76 75 102 0 10 -5 32
-11 48 -10 23 -20 30 -45 32 -18 2 -33 6 -35 11 -1 4 -8 16 -15 25 -11 15 -15
15 -62 0 -28 -9 -64 -29 -80 -45 -17 -16 -39 -30 -50 -31 -11 -2 -26 -7 -32
-11 -7 -5 -13 -6 -13 -4 0 3 -21 -1 -46 -9 -39 -11 -51 -11 -87 1 -37 13 -43
13 -53 0 -8 -11 -27 -13 -82 -10 -69 5 -73 4 -119 -29 l-48 -34 -70 13 c-38 7
-78 16 -87 20 -11 4 -29 -1 -48 -15 -24 -17 -36 -20 -58 -12 -26 8 -38 36 -56
132 -2 8 -8 28 -15 43 -15 37 -15 37 14 37 30 0 32 14 5 33 -13 9 -21 29 -25
63 -3 27 -7 60 -10 74 -2 14 -7 52 -10 85 -3 33 -8 71 -10 85 -8 46 -18 125
-19 158 -1 18 -11 43 -21 55 -10 12 -22 44 -26 72 -4 27 -10 66 -14 85 -4 19
-9 46 -11 60 -3 14 -6 57 -8 97 -4 87 -30 133 -76 133 -16 0 -35 3 -43 6 -8 3
-18 1 -21 -5z m-255 -564 c0 -6 2 -19 4 -27 2 -8 7 -31 11 -50 3 -19 10 -42
14 -51 5 -9 7 -25 4 -36 -4 -13 5 -36 21 -61 15 -23 24 -46 20 -52 -4 -6 -1
-31 6 -55 11 -36 18 -44 43 -49 49 -9 56 -12 68 -24 12 -12 6 -14 -59 -15 -31
-1 -29 -16 9 -65 30 -39 33 -40 57 -27 21 11 30 11 44 0 21 -15 21 -14 0 -61
-11 -24 -18 -67 -19 -112 -1 -64 2 -75 22 -95 13 -12 24 -32 24 -43 0 -17 -8
-23 -37 -29 -45 -8 -201 -61 -217 -73 -21 -17 -73 -30 -86 -22 -6 4 -33 1 -58
-6 -25 -8 -68 -16 -96 -19 -27 -3 -52 -9 -56 -14 -3 -6 -32 -11 -65 -12 -58
-3 -142 -37 -188 -77 -15 -13 -21 -13 -42 -2 -13 7 -49 14 -79 14 -74 2 -86
15 -53 58 26 34 70 136 82 186 4 20 16 33 38 43 24 11 32 21 32 40 1 18 12 36
33 54 18 15 32 35 32 45 0 10 10 20 23 24 19 4 23 11 21 36 -1 17 3 48 9 68 6
20 10 40 9 43 -1 4 9 16 21 27 71 66 108 105 103 109 -17 17 122 224 173 258
17 11 38 33 47 50 12 23 24 31 50 32 22 2 34 -2 35 -10z"/>
<path d="M10233 7922 c-18 -9 -65 -44 -105 -77 -40 -33 -77 -59 -82 -57 -5 2
-68 5 -140 7 -115 3 -136 0 -172 -17 -38 -19 -43 -19 -72 -4 -17 9 -40 16 -51
16 -11 0 -23 5 -26 10 -9 14 -75 13 -75 -2 0 -6 -3 -8 -6 -5 -4 3 -18 -2 -31
-13 -14 -11 -41 -22 -62 -26 -20 -4 -52 -19 -71 -34 -43 -34 -74 -50 -94 -50
-17 0 -67 -46 -59 -54 3 -2 -12 -10 -33 -16 -48 -13 -64 -25 -90 -71 -21 -35
-21 -37 -4 -90 29 -89 42 -109 71 -109 14 0 37 9 50 21 13 11 34 28 45 38 32
28 119 54 154 46 30 -7 42 -36 20 -50 -11 -7 -9 -27 8 -68 15 -35 15 -54 2
-59 -13 -4 -39 -74 -40 -106 0 -12 -11 -39 -24 -60 -31 -46 -45 -145 -32 -216
3 -17 -1 -38 -11 -53 -16 -24 -16 -26 2 -39 10 -8 25 -14 32 -14 19 0 16 -24
-7 -53 -25 -31 -25 -31 4 -62 l24 -26 -19 -51 c-19 -51 -18 -52 1 -73 19 -20
19 -22 2 -41 -38 -44 -46 -70 -48 -154 -1 -47 -7 -98 -15 -113 -10 -21 -10
-30 -1 -36 16 -9 19 -121 4 -148 -8 -15 -9 -29 -4 -40 5 -10 8 -29 6 -43 -11
-100 -11 -127 2 -145 22 -29 17 -51 -17 -79 -42 -36 -91 -55 -136 -55 -36 0
-59 -3 -111 -15 -12 -3 -34 -14 -49 -25 -14 -12 -30 -21 -35 -21 -6 0 -22 -12
-36 -27 -15 -16 -62 -61 -105 -100 l-79 -73 5 -47 c3 -27 6 -49 6 -51 1 -2 10
-1 21 3 11 4 32 -1 49 -11 19 -11 35 -14 47 -9 11 5 22 9 27 10 4 2 9 4 12 5
8 4 17 6 60 14 210 39 235 43 321 52 30 2 72 11 95 19 23 8 56 15 74 15 23 0
47 11 77 35 24 19 57 42 73 51 17 8 40 30 52 49 17 26 27 32 43 28 14 -4 29 2
43 15 12 12 36 34 52 49 47 44 89 103 79 112 -5 5 -29 17 -54 28 -44 19 -74
20 -182 9 -59 -5 -71 8 -74 77 -1 29 -5 95 -8 147 -11 146 -13 200 -6 200 3 0
4 54 3 121 -1 100 1 120 13 115 9 -3 14 1 15 12 0 9 3 26 5 37 5 24 14 78 19
125 2 19 6 46 9 60 3 13 8 42 12 65 3 22 14 78 24 125 10 47 21 96 24 110 19
93 36 153 52 178 8 12 12 22 10 22 -3 0 1 18 9 40 8 22 12 40 10 40 -2 0 9 29
25 65 16 36 25 67 19 70 -12 8 -12 35 2 35 32 0 219 108 275 158 42 39 93 72
158 102 52 25 96 51 96 58 0 8 15 27 34 44 40 36 38 54 -10 62 -19 4 -34 10
-35 14 -10 84 -23 98 -66 74z"/>
<path d="M14682 3540 l-1 -430 68 0 69 0 -1 430 0 430 -68 0 -67 0 0 -430z"/>
<path d="M12457 3820 l2 -90 -48 0 -47 0 0 -42 1 -43 45 -5 45 -5 1 -197 c1
-174 4 -202 21 -235 40 -77 106 -103 246 -99 54 2 103 8 109 14 12 12 17 67 7
83 -4 8 -17 8 -45 0 -84 -24 -168 -7 -186 38 -7 15 -12 103 -13 211 l-2 185
125 5 126 5 -1 28 c-1 15 -1 34 -2 42 -1 12 -22 15 -125 15 l-125 0 0 78 c1
42 1 83 0 90 -1 8 -22 12 -68 12 l-68 0 2 -90z"/>
<path d="M6129 3730 c-109 -34 -166 -81 -208 -170 -21 -45 -25 -70 -26 -140 0
-73 4 -93 28 -142 34 -69 91 -120 166 -150 78 -30 267 -31 356 -2 l60 20 3 62
c2 34 0 62 -3 62 -4 0 -19 -8 -33 -19 -82 -57 -249 -76 -322 -37 -80 43 -123
130 -115 234 10 138 101 215 249 208 66 -4 106 -15 214 -63 9 -4 12 10 12 51
0 54 -1 56 -33 69 -91 38 -255 46 -348 17z"/>
<path d="M7253 3725 c-134 -49 -201 -137 -209 -275 -10 -188 80 -312 254 -349
223 -47 422 55 457 234 23 122 -7 244 -79 316 -92 93 -282 126 -423 74z m265
-90 c66 -34 102 -110 102 -219 0 -81 -18 -134 -60 -176 -43 -43 -92 -59 -173
-56 -111 4 -177 60 -198 170 -27 148 25 260 139 297 39 12 151 3 190 -16z"/>
<path d="M8500 3736 c-143 -42 -186 -99 -171 -223 2 -21 53 -74 90 -92 20 -11
77 -26 126 -35 190 -35 220 -52 213 -118 -5 -47 -51 -70 -148 -74 -81 -4 -202
25 -256 61 -31 20 -37 16 -36 -27 0 -71 2 -76 30 -87 98 -39 261 -51 366 -27
113 27 176 83 184 166 11 113 -59 165 -263 196 -99 15 -141 30 -160 57 -51 73
39 135 179 123 67 -6 166 -35 193 -58 21 -17 29 -1 25 54 -2 29 -5 54 -7 56
-1 2 -27 10 -56 18 -77 21 -253 27 -309 10z"/>
<path d="M9770 3743 c-34 -12 -87 -38 -112 -55 -32 -22 -35 -22 -35 0 0 41 -2
42 -68 42 -61 0 -65 -2 -66 -22 0 -29 0 -534 0 -571 l1 -28 68 3 67 3 0 228 0
227 30 25 c17 13 37 24 46 25 8 0 20 5 26 11 20 20 117 23 156 4 56 -26 61
-50 62 -302 l0 -223 68 0 c46 0 67 4 68 13 0 6 1 111 1 232 l1 221 32 21 c49
33 128 55 171 50 111 -13 117 -27 118 -314 l1 -223 68 0 69 0 -4 253 -3 252
-28 41 c-36 53 -94 85 -166 91 -79 7 -149 -11 -223 -59 l-62 -40 -19 26 c-33
45 -93 70 -177 72 -41 1 -82 0 -90 -3z"/>
<path d="M11378 3731 c-104 -33 -171 -91 -211 -180 -29 -65 -29 -198 0 -262
57 -128 189 -190 390 -185 60 2 119 6 133 9 74 18 116 31 124 38 8 7 18 119
10 119 -1 0 -30 -13 -65 -30 -81 -37 -123 -45 -229 -44 -149 3 -227 60 -246
180 l-5 34 280 0 281 0 0 53 c0 119 -50 204 -147 252 -50 24 -72 29 -158 31
-75 2 -114 -2 -157 -15z m232 -79 c19 -8 44 -26 56 -40 23 -26 47 -99 38 -114
-3 -4 -100 -8 -215 -8 l-209 0 6 28 c16 70 72 124 149 143 46 12 136 7 175 -9z"/>
<path d="M13588 3734 c-98 -25 -168 -82 -210 -173 -18 -37 -22 -65 -22 -141
-1 -84 3 -102 27 -152 61 -125 190 -187 362 -175 210 15 325 130 325 326 0 97
-23 164 -75 220 -24 26 -64 57 -88 69 -84 42 -217 53 -319 26z m253 -111 c55
-36 82 -91 87 -172 12 -180 -68 -273 -230 -267 -111 4 -176 58 -199 165 -22
103 9 224 70 268 43 32 88 43 163 38 54 -3 76 -9 109 -32z"/>
<path d="M15662 3734 c-72 -19 -106 -38 -154 -86 -62 -62 -82 -116 -82 -223 0
-107 12 -148 65 -215 67 -85 166 -121 314 -116 213 7 334 124 336 323 1 73
-20 149 -54 198 -78 112 -262 163 -425 119z m192 -85 c65 -16 110 -58 130
-122 40 -129 9 -258 -76 -314 -37 -25 -51 -28 -122 -28 -111 0 -166 31 -203
115 -26 56 -22 194 6 252 42 88 148 127 265 97z"/>
<path d="M16909 3728 c-74 -26 -121 -61 -162 -121 -85 -125 -66 -328 39 -416
62 -53 120 -69 227 -67 88 2 130 14 218 63 3 2 4 -16 2 -39 -7 -106 -24 -136
-94 -167 -35 -16 -60 -19 -133 -16 -97 4 -144 10 -190 25 -45 15 -46 14 -46
-44 l0 -53 48 -8 c26 -4 103 -9 172 -10 214 -5 313 44 360 178 17 46 19 88 20
365 l0 312 -64 0 c-41 0 -66 -4 -68 -12 -3 -8 -16 -7 -49 6 -25 11 -80 20
-129 23 -70 3 -96 0 -151 -19z m279 -88 c23 -7 42 -18 43 -24 0 -6 2 -83 2
-170 2 -184 2 -184 -86 -205 -172 -43 -268 -11 -302 101 -15 50 -13 138 4 190
15 44 68 96 117 113 46 16 160 13 222 -5z"/>
<path d="M17940 3725 c0 -2 65 -136 144 -296 l144 -292 -24 -38 c-13 -21 -24
-41 -24 -43 0 -3 -22 -44 -49 -91 l-50 -86 75 3 76 3 107 210 c127 247 315
616 319 627 2 4 -28 8 -68 8 l-71 0 -28 -62 c-16 -35 -62 -133 -103 -218 -41
-85 -77 -162 -80 -170 -3 -9 -19 15 -41 60 -19 41 -69 146 -111 233 l-75 157
-71 0 c-38 0 -70 -2 -70 -5z"/>
</g>
</svg>
